<svg width="59" height="45" viewBox="0 0 59 45" fill="none" xmlns="http://www.w3.org/2000/svg">
<g clip-path="url(#clip0_149_45492)">
<path d="M33.6506 11.0757C33.6506 9.21129 34.0104 7.45538 34.7027 5.86228C20.5233 -4.10637 -0.247019 6.37602 0.00271945 23.5564C1.08203 51.651 42.0144 52.3541 44.1458 24.3946C38.1088 22.8268 33.6494 17.4518 33.6506 11.0757ZM12.2152 17.8835C12.2708 14.0738 18.1137 14.1015 18.1693 17.8835C18.1137 21.7197 12.2708 21.7463 12.2152 17.8835ZM29.9119 29.9047C24.7614 34.5514 19.1386 34.227 13.6555 29.9855C13.046 29.4995 12.9359 28.6614 13.4342 28.068C13.9052 27.5012 14.7632 27.3927 15.3727 27.8521C20.0535 31.499 24.0691 31.499 28.029 27.9329C29.3581 26.7173 31.2138 28.7156 29.9119 29.9047ZM28.2775 20.8008C24.4004 20.7465 24.372 15.047 28.2775 14.9928C32.2375 15.047 32.2103 20.7465 28.2775 20.8008Z" fill="#9B0047"/>
<path d="M47.7746 0C32.6543 0.513748 32.9028 21.7728 47.7746 22.1515C62.7564 21.692 62.7292 0.459479 47.7746 0ZM52.2204 9.54776L46.7002 14.924C46.4702 15.1544 46.1525 15.2822 45.8224 15.2786C45.4923 15.281 45.1758 15.1532 44.9458 14.924L42.1901 12.2359C41.8946 11.9272 41.7858 11.4894 41.9032 11.083C42.0207 10.6766 42.3458 10.3582 42.7625 10.2448C43.1791 10.1302 43.6279 10.2364 43.9444 10.5246L45.8236 12.3577L50.466 7.83767C50.6972 7.60854 51.0137 7.4807 51.3438 7.4807C51.6739 7.4807 51.9892 7.60974 52.2216 7.83767C52.4565 8.06319 52.5876 8.37192 52.5876 8.69392C52.5863 9.01351 52.4541 9.32224 52.2204 9.54776Z" fill="#524B4E"/>
</g>
<defs>
<clipPath id="clip0_149_45492">
<rect width="59" height="45" fill="white"/>
</clipPath>
</defs>
</svg>
