<svg width="66" height="40" viewBox="0 0 66 40" fill="none" xmlns="http://www.w3.org/2000/svg">
<g clip-path="url(#clip0_149_45499)">
<path fill-rule="evenodd" clip-rule="evenodd" d="M33.0006 21.22C41.5294 21.22 48.4419 28.0835 48.4419 36.5492C48.4419 37.7367 48.3072 38.8886 48.049 39.9988H17.9535C17.6965 38.8898 17.5605 37.7355 17.5605 36.5492C17.5605 28.0823 24.4743 21.22 33.0019 21.22H33.0006ZM33.0006 0C38.172 0 42.3611 4.16107 42.3611 9.29248C42.3611 14.4263 38.1696 18.585 33.0006 18.585C27.8292 18.585 23.6402 14.4239 23.6402 9.29248C23.639 4.15984 27.8305 0 33.0006 0Z" fill="#9B0047"/>
<path d="M61.3926 18.1525C62.0084 14.3854 59.4315 10.8359 55.6368 10.2245C51.8421 9.61308 48.2666 12.1713 47.6507 15.9385C47.0349 19.7056 49.6119 23.2551 53.4066 23.8665C57.2013 24.4779 60.7767 21.9197 61.3926 18.1525Z" fill="#524B4E"/>
<path fill-rule="evenodd" clip-rule="evenodd" d="M54.5206 26.0361C60.861 26.0361 66.0015 31.1393 66.0015 37.4337C66.0015 38.3157 65.9026 39.1732 65.7086 39.9976H51.283C51.4993 38.8604 51.6068 37.706 51.6068 36.548C51.6068 33.2027 50.7121 30.066 49.144 27.3586C50.7467 26.5133 52.5781 26.0337 54.5193 26.0337L54.5206 26.0361Z" fill="#524B4E"/>
<path fill-rule="evenodd" clip-rule="evenodd" d="M11.4809 26.0361C13.4222 26.0361 15.251 26.5158 16.8562 27.361C15.2893 30.0672 14.3934 33.2039 14.3934 36.5504C14.3934 37.7072 14.5022 38.8628 14.7172 40H0.292861C0.101327 39.1756 0 38.3157 0 37.4361C0 31.1418 5.14051 26.0386 11.4809 26.0386V26.0361Z" fill="#524B4E"/>
<path fill-rule="evenodd" clip-rule="evenodd" d="M11.4807 10.1353C15.325 10.1353 18.4414 13.2291 18.4414 17.0454C18.4414 20.8618 15.325 23.9556 11.4807 23.9556C7.63646 23.9556 4.52002 20.8618 4.52002 17.0454C4.52002 13.2291 7.63522 10.1365 11.4807 10.1353Z" fill="#524B4E"/>
</g>
<defs>
<clipPath id="clip0_149_45499">
<rect width="66" height="40" fill="white"/>
</clipPath>
</defs>
</svg>
