<svg width="71" height="71" viewBox="0 0 71 71" fill="none" xmlns="http://www.w3.org/2000/svg">
<g clip-path="url(#clip0_151_45597)">
<path d="M17.1908 46.7524L15.384 50.8197L20.1793 55.6154L24.2477 53.8084C26.1836 55.0004 28.2966 55.8772 30.5086 56.4048L32.1071 60.5582H38.8891L40.4862 56.4061C42.6996 55.8798 44.8126 55.003 46.7497 53.8097L50.8169 55.6166L55.6122 50.821L53.8053 46.7524C54.9973 44.8164 55.8741 42.7033 56.4017 40.4911L60.5548 38.8926V32.1102L56.4043 30.5117C55.8793 28.2995 55.0012 26.1851 53.8079 24.2491L55.6148 20.1818L50.8195 15.3862L46.751 17.1932C44.8152 16.0011 42.7022 15.1243 40.4901 14.5967L38.8917 10.4434H32.1097L30.5112 14.5967C28.2992 15.123 26.1862 15.9998 24.2503 17.1932L20.1819 15.3862L15.3866 20.1818L17.1934 24.2504C16.0014 26.1864 15.1247 28.3008 14.5971 30.513L10.4453 32.1115V38.8939L14.5958 40.4911C15.1208 42.702 15.9988 44.8151 17.1908 46.7524ZM35.4981 21.4924C43.2337 21.4924 49.505 27.7641 49.505 35.5001C49.505 43.2361 43.2337 49.5078 35.4981 49.5078C27.7625 49.5078 21.4911 43.2361 21.4911 35.5001C21.4911 27.7641 27.7625 21.4924 35.4981 21.4924Z" fill="white"/>
<path fill-rule="evenodd" clip-rule="evenodd" d="M35.5932 68.7188C19.2974 68.7774 5.25788 56.9219 2.6902 40.6903C0.30621 25.6273 8.59417 10.7845 22.5672 4.9024L21 7.85715C20.7056 8.41605 20.9206 9.10654 21.4795 9.40097C22.0383 9.6954 22.7288 9.48044 23.0232 8.92154L25.9674 3.37031C26.3517 2.71891 26.0051 1.86557 25.26 1.67927L19.1111 0.138061C18.4988 -0.0156694 17.8774 0.358234 17.7237 0.97055C17.57 1.58287 17.9438 2.2043 18.5561 2.35803L21.1694 3.01334C6.51371 9.46741 -2.08169 25.1414 0.43518 41.0486C3.18003 58.4019 18.1718 71.0625 35.5932 71C36.2237 71 36.7331 70.4893 36.7331 69.86C36.7344 69.2295 36.2237 68.7188 35.5932 68.7188Z" fill="white"/>
<path fill-rule="evenodd" clip-rule="evenodd" d="M52.4402 68.6432L49.8243 67.9866C64.5451 61.5143 73.0832 45.8885 70.5611 29.9514C67.8163 12.5955 52.8284 -0.063841 35.4031 -3.79076e-06C34.7726 -3.79076e-06 34.2632 0.510694 34.2632 1.13995C34.2632 1.7705 34.7739 2.2799 35.4031 2.2799C51.7054 2.22127 65.7371 14.0715 68.3061 30.3083C70.6953 45.4039 62.4633 60.1855 48.4264 66.1002L49.9962 63.1415C50.2906 62.5826 50.0757 61.8921 49.5168 61.5977C48.958 61.3033 48.2675 61.5182 47.9731 62.0771L45.0289 67.6283C44.6446 68.2797 44.9911 69.1331 45.7363 69.3194L51.8852 70.8619C52.4975 71.0156 53.1189 70.6417 53.2713 70.0294C53.425 69.4158 53.0524 68.7944 52.4402 68.6432Z" fill="white"/>
<path d="M35.4981 47.2161C41.9688 47.2161 47.2136 41.971 47.2136 35.5C47.2123 29.029 41.9675 23.7839 35.4981 23.7839C29.0275 23.7839 23.7827 29.029 23.7827 35.5C23.7827 41.971 29.0275 47.2161 35.4981 47.2161ZM28.238 33.7608C28.9832 33.0169 30.1908 33.0169 30.936 33.7608L33.8085 36.6335L40.0629 30.3175C40.8029 29.5697 42.0105 29.5684 42.7557 30.3097C43.5008 31.051 43.5034 32.2547 42.7635 33.0012C40.2284 35.5599 37.7089 38.1369 35.162 40.6852C34.4169 41.4291 33.2093 41.4291 32.4641 40.6852L28.2367 36.4576C27.4929 35.715 27.4929 34.506 28.238 33.7608Z" fill="white"/>
</g>
<defs>
<clipPath id="clip0_151_45597">
<rect width="71" height="71" fill="white"/>
</clipPath>
</defs>
</svg>
