<svg width="525" height="489" viewBox="0 0 525 489" fill="none" xmlns="http://www.w3.org/2000/svg">
<g clip-path="url(#clip0_140_108040)">
<path d="M487.064 219.513C483.565 219.215 480.14 223.518 478.844 227.023C477.521 230.623 477.098 237.055 481.582 239.992C485.565 242.604 491.379 241.121 493.908 237.942C498.545 232.123 492.635 219.985 487.064 219.513Z" stroke="white" stroke-width="3.7864" stroke-miterlimit="10" stroke-linecap="round" stroke-linejoin="round"/>
<path d="M89.7587 192.535C83.7759 191.176 77.6184 193.428 74.12 198.202C70.9483 202.539 70.3624 208.42 72.7003 213.082C76.1424 219.957 85.8208 223.967 91.1783 220.17C95.3471 217.216 97.4203 209.178 93.3078 205.291C90.0741 202.23 83.6068 202.308 79.0944 206.706" stroke="#FF94C5" stroke-width="3.7864" stroke-miterlimit="10" stroke-linecap="round" stroke-linejoin="round"/>
<path d="M477.808 204.931C477.808 204.931 472.473 181.003 470.873 126.238C469.273 71.4729 473.008 52.3303 473.008 52.3303C473.008 52.3303 482.072 49.6735 500.207 50.2015C500.207 50.2015 489.543 167.174 491.672 204.926H484.737" stroke="white" stroke-width="3.7864" stroke-miterlimit="10" stroke-linecap="round" stroke-linejoin="round"/>
<path d="M67.7261 174.094L78.3904 167.714C73.0554 155.485 69.7767 129.844 75.7257 119.863C85.8604 102.849 94.3896 76.2641 92.7897 54.4648C91.7757 40.6752 75.7257 -14.1237 29.328 6.08043C-17.0698 26.2846 13.3287 85.8354 13.3287 85.8354L34.1277 72.5457C34.1277 72.5457 15.999 34.7942 34.1277 26.2902C52.2564 17.7861 64.1883 36.1311 68.6218 47.4267C73.0554 58.7224 73.3315 86.223 60.1265 109.157C46.9215 132.091 52.4085 156.553 61.6644 177.026" stroke="#FF94C5" stroke-width="3.7864" stroke-miterlimit="10" stroke-linecap="round" stroke-linejoin="round"/>
<path d="M99.9893 329.083C101.679 334.037 104.192 339.912 107.989 346.096C110.101 349.54 112.287 352.545 114.389 355.134" stroke="white" stroke-width="3.7864" stroke-miterlimit="10" stroke-linecap="round" stroke-linejoin="round"/>
<path d="M121.853 349.287C141.525 351.118 162.927 352.326 185.844 352.477C207.731 352.623 228.237 351.792 247.171 350.348" stroke="white" stroke-width="3.7864" stroke-miterlimit="10" stroke-linecap="round" stroke-linejoin="round"/>
<path d="M129.853 414.685C144.224 419.353 163.659 423.964 186.915 424.79C201.258 425.295 214.034 424.256 224.778 422.661" stroke="white" stroke-width="3.7864" stroke-miterlimit="10" stroke-linecap="round" stroke-linejoin="round"/>
<path d="M111.718 330.15C113.898 343.939 115.729 358.493 117.053 373.749C120.281 410.983 119.87 445.118 117.588 475.303" stroke="white" stroke-width="3.7864" stroke-miterlimit="10" stroke-linecap="round" stroke-linejoin="round"/>
<path d="M75.9908 399.8C70.1262 424.256 64.2561 448.718 58.3916 473.174" stroke="white" stroke-width="3.7864" stroke-miterlimit="10" stroke-linecap="round" stroke-linejoin="round"/>
<path d="M114.383 402.457C112.4 402.631 109.425 402.777 105.848 402.457C93.0657 401.317 85.3478 395.402 72.2498 388.1C66.6388 384.971 58.5491 380.759 48.251 376.4C54.6507 351.472 63.1742 332.009 70.1147 318.444C84.6379 290.062 94.5924 282.917 98.9133 280.165C101.809 278.317 104.017 277.272 124.512 268.465C136.731 263.213 146.973 258.848 154.375 255.703" stroke="white" stroke-width="3.7864" stroke-miterlimit="10" stroke-linecap="round" stroke-linejoin="round"/>
<path d="M158.646 253.585C162.223 258.27 168.73 265.403 178.909 270.066C200.582 279.991 222.744 271.324 232.772 267.409C239.639 264.724 249.869 259.758 260.5 250.395" stroke="white" stroke-width="3.7864" stroke-miterlimit="10" stroke-linecap="round" stroke-linejoin="round"/>
<path d="M169.845 246.137C174.132 252.226 178.729 255.478 182.109 257.304C199.342 266.589 220.429 257.854 233.301 252.518C242.016 248.906 248.692 244.829 253.03 241.885" stroke="white" stroke-width="3.7864" stroke-miterlimit="10" stroke-linecap="round" stroke-linejoin="round"/>
<path d="M264.235 249.861C266.9 250.749 269.57 251.636 272.234 252.518" stroke="white" stroke-width="3.7864" stroke-miterlimit="10" stroke-linecap="round" stroke-linejoin="round"/>
<path d="M154.917 134.484C157.35 133.793 162.246 132.754 168.245 133.95C173.992 135.096 177.986 137.742 179.98 139.27" stroke="white" stroke-width="3.7864" stroke-miterlimit="10" stroke-linecap="round" stroke-linejoin="round"/>
<path d="M185.845 141.393C186.971 142.96 189.343 146.723 189.58 152.025C189.929 159.906 185.276 165.253 184.245 166.382C186.554 168.511 188.864 170.634 191.18 172.763" stroke="white" stroke-width="3.7864" stroke-miterlimit="10" stroke-linecap="round" stroke-linejoin="round"/>
<path d="M217.837 145.117C217.657 147.774 217.482 150.436 217.302 153.093" stroke="white" stroke-width="3.7864" stroke-miterlimit="10" stroke-linecap="round" stroke-linejoin="round"/>
<path d="M169.845 145.65C169.665 148.841 169.49 152.031 169.31 155.221" stroke="white" stroke-width="3.7864" stroke-miterlimit="10" stroke-linecap="round" stroke-linejoin="round"/>
<path d="M211.973 137.674C214.998 136.86 218.389 136.113 222.107 135.545C226.806 134.826 231.11 134.534 234.907 134.484" stroke="white" stroke-width="3.7864" stroke-miterlimit="10" stroke-linecap="round" stroke-linejoin="round"/>
<path d="M256.77 162.664C256.46 158.974 254.742 156.401 253.035 156.283C250.804 156.132 249.126 160.204 248.771 161.069C247.12 165.074 247.357 170.438 249.306 171.174C250.517 171.629 252.224 170.241 253.041 169.045C254.714 166.602 254.179 162.72 251.441 159.474" stroke="white" stroke-width="3.7864" stroke-miterlimit="10" stroke-linecap="round" stroke-linejoin="round"/>
<path d="M255.7 147.245C257.88 147.504 261.936 148.335 264.235 151.497C268.764 157.732 262.714 167.837 261.035 170.64C256.432 178.324 249.537 182.172 245.571 183.93" stroke="white" stroke-width="3.7864" stroke-miterlimit="10" stroke-linecap="round" stroke-linejoin="round"/>
<path d="M152.781 160.535C154.809 174.134 158.753 184.576 161.846 191.372C166.888 202.438 171.67 212.593 182.645 219.552C186.013 221.692 191.777 225.248 199.709 225.4C209.787 225.596 217.032 220.165 222.107 216.362C235.228 206.527 240.98 193.31 243.436 186.053" stroke="white" stroke-width="3.7864" stroke-miterlimit="10" stroke-linecap="round" stroke-linejoin="round"/>
<path d="M194.373 200.415C193.911 200.449 192.007 200.595 191.173 199.354C190.328 198.101 191.05 196.13 192.238 195.102C193.455 194.051 195.19 193.956 196.503 194.568C197.348 194.961 198.627 195.933 198.638 197.225C198.655 199.011 196.221 200.275 194.373 200.415Z" stroke="white" stroke-width="3.7864" stroke-miterlimit="10" stroke-linecap="round" stroke-linejoin="round"/>
<path d="M186.909 221.681C186.909 226.821 186.909 231.96 186.909 237.1C186.909 240.998 186.909 244.896 186.909 248.8" stroke="white" stroke-width="3.7864" stroke-miterlimit="10" stroke-linecap="round" stroke-linejoin="round"/>
<path d="M241.301 191.906C240.687 197.86 240.427 205.268 241.301 213.705C242.298 223.355 244.478 231.449 246.636 237.633" stroke="white" stroke-width="3.7864" stroke-miterlimit="10" stroke-linecap="round" stroke-linejoin="round"/>
<path d="M171.98 248.8C173.913 248.783 177.321 248.485 181.045 246.671C183.788 245.334 185.715 243.649 186.909 242.419" stroke="white" stroke-width="3.7864" stroke-miterlimit="10" stroke-linecap="round" stroke-linejoin="round"/>
<path d="M206.643 100.456C206.266 101.136 201.979 109.157 206.108 116.936C207.004 118.621 210.074 123.666 216.243 124.912C221.696 126.013 225.899 123.407 226.907 122.784C227.764 122.25 232.372 119.397 231.707 116.936C231.155 114.903 227.11 113.527 225.307 114.808C222.896 116.515 223.651 123.536 226.907 126.508C231.042 130.277 240.411 128.603 249.836 121.722" stroke="#FF94C5" stroke-width="3.7864" stroke-miterlimit="10" stroke-linecap="round" stroke-linejoin="round"/>
<path d="M251.436 124.379C254.438 123.194 257.661 123.609 259.435 125.441C262.86 128.979 259.537 136.394 257.3 136.607C255.993 136.731 254.258 134.461 254.635 132.883C255.249 130.305 261.745 128.513 264.235 130.754C266.331 132.642 266.1 137.86 262.1 142.454" stroke="#FF94C5" stroke-width="3.7864" stroke-miterlimit="10" stroke-linecap="round" stroke-linejoin="round"/>
<path d="M193.844 73.3377C191.895 72.8154 186.424 71.6302 181.044 74.3993C173.197 78.4379 170.02 88.5821 172.51 95.6651C172.836 96.5863 174.752 102.04 178.909 102.58C183.275 103.147 188.312 98.0523 187.444 94.6035C186.74 91.8287 182.154 89.8853 178.909 90.8795C173.411 92.5645 170.234 103.158 174.11 110.022C176.436 114.134 181.878 117.936 186.374 116.403C189.129 115.465 191.737 112.454 191.174 110.022C190.464 106.966 184.808 105.175 181.574 106.832C177.208 109.067 176.2 118.133 180.509 122.784C183.039 125.514 186.633 125.901 187.974 125.974" stroke="#FF94C5" stroke-width="3.7864" stroke-miterlimit="10" stroke-linecap="round" stroke-linejoin="round"/>
<path d="M150.646 126.508C150.15 125.66 148.252 122.205 149.581 119.593C152.026 114.796 163.671 116.229 164.51 119.06C165.017 120.762 161.879 123.823 160.246 123.312C158.082 122.638 157.288 115.308 160.246 110.022C162.155 106.607 165.164 104.894 166.645 104.175" stroke="#FF94C5" stroke-width="3.7864" stroke-miterlimit="10" stroke-linecap="round" stroke-linejoin="round"/>
<path d="M138.917 99.389C136.754 99.1644 131.56 98.9341 126.653 102.046C120.805 105.753 115.132 114.347 118.653 121.188C121.475 126.665 129.267 129.204 134.652 127.036C137.373 125.94 140.46 123.25 139.987 121.188C139.339 118.397 132.061 116.403 128.788 119.06C125.126 122.031 125.83 131.344 131.452 134.478C134.833 136.36 139.497 135.731 143.187 132.883" stroke="#FF94C5" stroke-width="3.7864" stroke-miterlimit="10" stroke-linecap="round" stroke-linejoin="round"/>
<path d="M135.182 137.674C135.03 138.112 133.43 142.948 136.247 146.184C137.593 147.728 140.404 149.43 142.111 148.313C143.672 147.29 144.021 144.111 142.646 142.993C141.829 142.331 140.404 142.398 139.446 142.993C136.934 144.56 136.19 150.66 139.446 153.626C141.429 155.429 144.55 155.772 147.446 154.688" stroke="#FF94C5" stroke-width="3.7864" stroke-miterlimit="10" stroke-linecap="round" stroke-linejoin="round"/>
<path d="M142.117 93.542C141.525 93.205 133.909 88.6833 133.582 80.2523C133.548 79.3367 133.362 71.1978 139.447 68.0242C144.962 65.1483 152.477 67.9793 154.911 72.8098C156.753 76.4665 155.812 81.5217 154.375 81.8475C152.905 82.1789 150.043 77.7584 149.576 73.3378C149.198 69.7542 150.263 64.8956 153.84 62.1713C160.679 56.9644 172.955 62.4016 173.569 66.957C173.901 69.3891 171.034 72.4841 168.769 72.2762C164.51 71.883 159.603 59.5651 163.969 55.2625C166.42 52.8472 171.856 53.4482 176.769 56.3241" stroke="#FF94C5" stroke-width="3.7864" stroke-miterlimit="10" stroke-linecap="round" stroke-linejoin="round"/>
<path d="M230.637 60.5761C235.476 55.7399 239.763 54.903 241.836 54.7288C255.503 53.5717 271.007 69.1868 269.564 83.9706C269.018 89.5876 266.122 93.9407 263.7 96.7323C264.539 96.0695 268.702 92.924 273.299 94.0755C279.203 95.5528 281.75 103.079 281.299 108.432C281.057 111.291 279.97 113.493 279.164 114.813C280.578 114.841 284.459 115.122 287.164 118.004C291.158 122.256 289.862 129.288 287.164 133.422C285.474 136.012 283.237 137.461 281.829 138.208" stroke="#FF94C5" stroke-width="3.7864" stroke-miterlimit="10" stroke-linecap="round" stroke-linejoin="round"/>
<path d="M285.034 141.926C285.468 142.606 288.955 148.273 286.634 154.154C284.318 160.03 277.153 163.703 269.57 162.13C272.296 165.147 272.916 169.416 271.17 172.763C269.097 176.74 264.714 177.476 264.235 177.549C264.342 178.139 264.928 181.655 262.635 184.463C260.297 187.328 255.925 188.277 251.971 186.592" stroke="#FF94C5" stroke-width="3.7864" stroke-miterlimit="10" stroke-linecap="round" stroke-linejoin="round"/>
<path d="M180.509 55.7903C178.757 51.5608 179.557 47.4323 181.574 46.2191C183.901 44.8204 189.095 46.5561 191.709 52.0663C192.12 52.5887 194.65 55.8802 193.844 56.8519C193.1 57.745 189.416 56.7901 188.509 54.7231C187.089 51.4934 191.686 43.7925 198.109 43.5566C202.672 43.3881 206.458 47.0504 207.708 50.4711C208.435 52.4651 208.66 55.3578 207.708 55.7903C206.7 56.2453 203.99 54.1221 203.973 52.0663C203.951 48.5838 211.674 43.1971 217.837 45.6855C221.769 47.275 224.338 51.7742 224.237 56.8519" stroke="#FF94C5" stroke-width="3.7864" stroke-miterlimit="10" stroke-linecap="round" stroke-linejoin="round"/>
<path d="M431.545 284.979C432.25 272.121 432.954 259.264 433.658 246.407C434.807 246.856 436.447 247.676 437.877 249.21C441.511 253.108 441.044 258.669 440.689 264.64C440.39 269.689 440.052 277.21 439.984 287.079" stroke="white" stroke-width="3.7864" stroke-miterlimit="10" stroke-linecap="round" stroke-linejoin="round"/>
<path d="M430.081 290.27C428.903 295.505 427.557 304.778 430.081 315.793C431.776 323.19 434.649 328.931 437.016 332.807" stroke="white" stroke-width="3.7864" stroke-miterlimit="10" stroke-linecap="round" stroke-linejoin="round"/>
<path d="M459.409 335.997C461.561 333.419 464.225 329.532 465.808 324.297C466.907 320.669 467.127 317.63 467.408 313.664C467.729 309.109 467.605 305.273 467.408 302.498" stroke="white" stroke-width="3.7864" stroke-miterlimit="10" stroke-linecap="round" stroke-linejoin="round"/>
<path d="M445.544 313.131C447.42 313.996 450.294 315.591 453.009 318.45C454.992 320.534 456.828 322.46 457.273 325.364C458.023 330.245 454.265 334.2 453.538 334.936" stroke="white" stroke-width="3.7864" stroke-miterlimit="10" stroke-linecap="round" stroke-linejoin="round"/>
<path d="M428.48 301.97C429.607 300.172 431.782 297.229 435.472 294.758C439.984 291.736 444.401 291.011 446.615 290.803C446.953 291.107 447.437 291.629 447.68 292.398C447.899 293.084 447.995 294.196 447.06 295.943C444.778 300.195 440.271 300.908 439.68 303.565C439.398 304.834 439.917 306.969 444.48 310.479" stroke="white" stroke-width="3.7864" stroke-miterlimit="10" stroke-linecap="round" stroke-linejoin="round"/>
<path d="M442.88 283.889C444.84 283.063 449.601 281.355 455.679 282.294C462.18 283.293 466.383 286.731 467.943 288.141C468.834 291.511 469.724 294.875 470.608 298.246C467.943 301.616 465.273 304.98 462.608 308.351C456.744 307.643 450.874 306.935 445.009 306.222C446.254 303.211 447.499 300.195 448.744 297.184" stroke="white" stroke-width="3.7864" stroke-miterlimit="10" stroke-linecap="round" stroke-linejoin="round"/>
<path d="M450.879 284.422C451.944 286.018 453.015 287.613 454.079 289.208C455.144 292.045 456.214 294.881 457.279 297.718C455.144 300.908 453.015 304.099 450.879 307.289" stroke="white" stroke-width="3.7864" stroke-miterlimit="10" stroke-linejoin="round"/>
<path d="M459.408 285.484C460.299 286.725 461.189 287.967 462.073 289.208C462.783 292.399 463.493 295.589 464.208 298.779C462.073 301.97 459.944 305.16 457.809 308.351" stroke="white" stroke-width="3.7864" stroke-miterlimit="10" stroke-linejoin="round"/>
<path d="M439.145 336.525C439.004 356.398 437.883 372.255 437.01 382.253C432.401 434.962 422.289 465.097 439.145 482.212C441.894 485.003 444.62 486.7 446.08 487.531C450.051 485.06 455.583 480.892 459.944 474.241C469.678 459.396 467.025 442.219 465.808 433.299C462.727 410.697 460.738 381.579 459.944 341.316" stroke="white" stroke-width="3.7864" stroke-miterlimit="10" stroke-linecap="round" stroke-linejoin="round"/>
<path d="M424.746 432.232C424.729 439.798 426.881 455.627 430.61 465.198C431.478 467.417 430.216 462.951 430.61 465.198" stroke="white" stroke-width="3.7864" stroke-miterlimit="10" stroke-linecap="round" stroke-linejoin="round"/>
<path d="M248.771 442.337C247.582 449.881 245.746 458.306 242.906 467.327C241.408 472.084 239.78 476.516 238.106 480.617" stroke="white" stroke-width="3.7864" stroke-miterlimit="10" stroke-linecap="round" stroke-linejoin="round"/>
<path d="M336.226 288.141C336.98 293.865 337.459 300.481 337.29 307.811C337.178 312.816 336.778 317.444 336.226 321.635" stroke="white" stroke-width="3.7864" stroke-miterlimit="10" stroke-linecap="round" stroke-linejoin="round"/>
<path d="M333.561 309.412C331.223 311.614 328.226 314.052 324.497 316.327C317.81 320.399 311.455 322.297 306.897 323.241" stroke="white" stroke-width="3.7864" stroke-miterlimit="10" stroke-linecap="round" stroke-linejoin="round"/>
<path d="M310.098 326.426C316.362 329.049 325.094 331.768 335.696 332.273C362.095 333.543 381.412 320.236 387.959 315.26" stroke="white" stroke-width="3.7864" stroke-miterlimit="10" stroke-linecap="round" stroke-linejoin="round"/>
<path d="M291.963 169.045C287.952 171.477 282.352 175.622 278.099 182.334C270.432 194.428 271.722 207.571 272.234 214.767C273.879 237.942 272.054 264.246 267.97 282.293C261.289 311.794 248.354 320.208 251.971 343.44C253.345 352.258 256.478 359.178 258.906 363.644" stroke="#FF94C5" stroke-width="3.7864" stroke-miterlimit="10" stroke-linecap="round" stroke-linejoin="round"/>
<path d="M267.435 331.745C266.443 335.458 265.288 341.698 266.37 349.292C267.739 358.886 271.97 365.66 274.37 368.963" stroke="#FF94C5" stroke-width="3.7864" stroke-miterlimit="10" stroke-linecap="round" stroke-linejoin="round"/>
<path d="M283.434 341.311C283.102 343.647 282.155 352.314 287.699 360.453C290.915 365.177 294.966 367.733 297.298 368.963" stroke="#FF94C5" stroke-width="3.7864" stroke-miterlimit="10" stroke-linecap="round" stroke-linejoin="round"/>
<path d="M311.162 217.429C310.943 238.661 309.394 255.866 307.963 267.942C306.03 284.248 305.428 297.246 304.228 323.241C304.036 327.353 303.777 334.385 306.363 342.912C309.354 352.786 314.712 359.864 318.627 364.177" stroke="#FF94C5" stroke-width="3.7864" stroke-miterlimit="10" stroke-linecap="round" stroke-linejoin="round"/>
<path d="M397.017 227C399.124 240.56 397.108 251.176 395.418 257.31C392.961 266.207 388.038 284.069 371.954 291.337C363.351 295.224 355.352 294.37 352.225 293.994C335.68 292.017 325.658 280.058 321.297 274.851C317.911 270.807 312.807 263.64 309.562 253.052" stroke="white" stroke-width="3.7864" stroke-miterlimit="10" stroke-linecap="round" stroke-linejoin="round"/>
<path d="M369.818 292.398C369.272 294.746 368.816 297.617 368.754 300.908C368.641 306.699 369.796 311.468 370.889 314.731" stroke="white" stroke-width="3.7864" stroke-miterlimit="10" stroke-linecap="round" stroke-linejoin="round"/>
<path d="M372.489 306.755C375.238 308.21 378.443 309.693 382.088 311.007C384.533 311.889 386.86 312.586 389.023 313.136" stroke="white" stroke-width="3.7864" stroke-miterlimit="10" stroke-linecap="round" stroke-linejoin="round"/>
<path d="M375.954 174.094C378.055 175.976 384.702 182.413 386.635 193.237C388.522 203.814 384.736 211.97 383.429 214.503" stroke="#FF94C5" stroke-width="3.7864" stroke-miterlimit="10" stroke-linecap="round" stroke-linejoin="round"/>
<path d="M365.447 180.784C366.72 183.604 369.041 189.799 368.134 197.719C366.895 208.56 360.444 215.351 358.394 217.35" stroke="#FF94C5" stroke-width="3.7864" stroke-miterlimit="10" stroke-linecap="round" stroke-linejoin="round"/>
<path d="M344.755 181.273C345.493 184.84 347.183 195.36 341.555 206.263C338.592 212.003 334.671 215.772 331.956 217.963" stroke="#FF94C5" stroke-width="3.7864" stroke-miterlimit="10" stroke-linecap="round" stroke-linejoin="round"/>
<path d="M325.562 194.035C324.593 199.775 322.863 206.729 319.697 214.239C318.013 218.232 316.182 221.777 314.362 224.872" stroke="#FF94C5" stroke-width="3.7864" stroke-miterlimit="10" stroke-linecap="round" stroke-linejoin="round"/>
<path d="M367.689 208.392C368.979 208.161 370.41 207.97 371.954 207.858C374.122 207.701 376.094 207.734 377.818 207.858" stroke="white" stroke-width="3.7864" stroke-miterlimit="10" stroke-linecap="round" stroke-linejoin="round"/>
<path d="M326.626 212.643C327.488 212.009 329.122 210.981 331.426 210.515C333.488 210.099 335.212 210.312 336.226 210.515" stroke="white" stroke-width="3.7864" stroke-miterlimit="10" stroke-linecap="round" stroke-linejoin="round"/>
<path d="M334.091 227C334.091 230.191 334.091 233.381 334.091 236.572" stroke="white" stroke-width="3.7864" stroke-miterlimit="10" stroke-linecap="round" stroke-linejoin="round"/>
<path d="M376.753 224.872C376.753 228.416 376.753 231.96 376.753 235.504" stroke="white" stroke-width="3.7864" stroke-miterlimit="10" stroke-linecap="round" stroke-linejoin="round"/>
<path d="M356.49 228.596C356.191 229.556 355.853 231.039 355.954 232.848C356.005 233.735 356.191 235.111 357.019 237.1C358.918 241.638 362.748 245.901 363.954 247.205C361.819 249.861 359.689 252.524 357.554 255.181" stroke="white" stroke-width="3.7864" stroke-miterlimit="10" stroke-linecap="round" stroke-linejoin="round"/>
<path d="M349.025 270.065C350.473 270.605 353.132 271.385 356.49 271.127C360.354 270.829 363.149 269.318 364.489 268.47" stroke="white" stroke-width="3.7864" stroke-miterlimit="10" stroke-linecap="round" stroke-linejoin="round"/>
<path d="M303.698 156.817C304.357 150.307 306.655 146.066 308.497 143.527C317.145 131.591 336.806 127.844 357.56 134.489" stroke="#FF94C5" stroke-width="3.7864" stroke-miterlimit="10" stroke-linecap="round" stroke-linejoin="round"/>
<path d="M371.418 139.269C377.136 141.275 385.947 145.33 393.817 153.626C397.305 157.3 407.558 168.112 408.217 184.463C408.504 191.642 406.848 197.444 405.552 200.943" stroke="#FF94C5" stroke-width="3.7864" stroke-miterlimit="10" stroke-linecap="round" stroke-linejoin="round"/>
<path d="M404.481 218.491C405.017 221.855 405.867 226.843 407.146 232.848C409.923 245.885 411.963 250.788 415.681 264.752C419.754 280.047 421.788 287.691 422.081 295.589C422.481 306.424 420.554 315.327 418.881 321.112" stroke="#FF94C5" stroke-width="3.7864" stroke-miterlimit="10" stroke-linecap="round" stroke-linejoin="round"/>
<path d="M244.501 370.558C242.912 377.928 241.323 383.78 240.236 387.572C235.115 405.394 232.569 406.95 232.236 415.752C232.107 419.1 232.355 422.077 230.636 425.857C228.051 431.536 223.442 433.715 224.237 435.428C225.093 437.276 231.098 436.17 232.236 435.962C236.383 435.198 239.47 433.468 241.301 432.238C241.284 432.76 241.216 437.557 244.501 439.68C249.092 442.657 255.401 437.282 255.7 437.023C259.148 434.007 261.097 428.974 259.965 427.986C259.018 427.154 255.362 428.699 254.63 431.176C253.779 434.069 257.294 436.978 259.429 438.091C264.302 440.618 269.913 437.675 271.164 437.029C272.888 436.136 274.127 435.097 274.899 434.372C275.153 434.793 276.488 436.962 279.164 437.563C281.682 438.13 284.392 437.085 286.099 434.906" stroke="white" stroke-width="3.7864" stroke-miterlimit="10" stroke-linecap="round" stroke-linejoin="round"/>
<path d="M270.1 381.725C271.869 385.246 274.415 389.358 278.099 393.425C279.35 394.806 280.606 396.042 281.834 397.149" stroke="white" stroke-width="3.7864" stroke-miterlimit="10" stroke-linecap="round" stroke-linejoin="round"/>
<path d="M286.634 384.915C285.13 390.071 283.676 396.952 283.434 405.119C283.124 415.55 284.904 424.172 286.634 430.109" stroke="white" stroke-width="3.7864" stroke-miterlimit="10" stroke-linecap="round" stroke-linejoin="round"/>
<path d="M286.099 440.742C285.485 446.994 284.775 453.38 283.964 459.884C282.989 467.715 281.919 475.337 280.764 482.745" stroke="white" stroke-width="3.7864" stroke-miterlimit="10" stroke-linecap="round" stroke-linejoin="round"/>
<path d="M331.426 471.045C338.333 461.188 353.206 440.573 361.825 434.355C363.374 433.238 367.137 430.525 368.76 431.699C369.808 432.457 369.571 434.558 369.295 435.951" stroke="white" stroke-width="3.7864" stroke-miterlimit="10" stroke-linecap="round" stroke-linejoin="round"/>
<path d="M429.545 365.239C426.345 370.912 423.146 376.58 419.946 382.253" stroke="white" stroke-width="3.7864" stroke-miterlimit="10" stroke-linecap="round" stroke-linejoin="round"/>
<path d="M411.946 365.773C415.85 376.142 418.076 385.297 419.411 392.358C420.909 400.3 423.033 411.523 422.075 425.857C421.354 436.715 419.608 438.147 419.411 447.656C419.174 458.772 421.32 467.838 423.146 473.708" stroke="white" stroke-width="3.7864" stroke-miterlimit="10" stroke-linecap="round" stroke-linejoin="round"/>
<path d="M464.208 368.963C468.315 381.062 469.104 388.106 469.008 392.358C468.963 394.369 468.682 397.329 470.073 400.867C471.724 405.052 474.49 406.939 473.808 408.31C473.419 409.091 471.904 409.703 466.873 408.843" stroke="white" stroke-width="3.7864" stroke-miterlimit="10" stroke-linecap="round" stroke-linejoin="round"/>
<path d="M424.216 425.323C424.914 426.705 426.52 427.379 427.951 426.919C429.286 426.492 430.182 425.172 430.086 423.728" stroke="#FF94C5" stroke-width="3.7864" stroke-miterlimit="10" stroke-linecap="round" stroke-linejoin="round"/>
<path d="M391.682 314.198C400.206 316.804 410.335 320.775 421.01 326.959C426.43 330.099 431.224 333.357 435.41 336.531" stroke="white" stroke-width="3.7864" stroke-miterlimit="10" stroke-linecap="round" stroke-linejoin="round"/>
</g>
<defs>
<clipPath id="clip0_140_108040">
<rect width="525" height="488" fill="white" transform="translate(0 0.592773)"/>
</clipPath>
</defs>
</svg>
