<svg width="60" height="60" viewBox="0 0 60 60" fill="none" xmlns="http://www.w3.org/2000/svg">
<g clip-path="url(#clip0_151_45551)">
<path d="M13.3042 10.0623V13.6175C13.3042 17.0986 21.9063 18.9773 29.999 18.9773C38.0917 18.9773 46.6938 17.0986 46.6938 13.6175V10.0623V9.14002V7.6001C43.8408 10.7454 35.0555 11.6534 29.999 11.6534C24.9425 11.6534 16.1544 10.7483 13.3042 7.6001V9.14002M16.5636 12.607C16.5636 12.8632 16.3576 13.0681 16.1 13.0681C15.8425 13.0681 15.6364 12.8632 15.6364 12.607V11.3716C15.6364 11.1154 15.8425 10.9105 16.1 10.9105C16.3576 10.9105 16.5636 11.1154 16.5636 11.3716V12.607ZM20.0376 14.0729C20.0376 14.3291 19.8316 14.534 19.5741 14.534C19.3165 14.534 19.1105 14.3291 19.1105 14.0729V12.8375C19.1105 12.5814 19.3165 12.3764 19.5741 12.3764C19.8316 12.3764 20.0376 12.5814 20.0376 12.8375V14.0729ZM23.5145 14.8642C23.5145 15.1204 23.3085 15.3253 23.0509 15.3253C22.7934 15.3253 22.5874 15.1204 22.5874 14.8642V13.6288C22.5874 13.3727 22.7934 13.1677 23.0509 13.1677C23.3085 13.1677 23.5145 13.3727 23.5145 13.6288V14.8642ZM26.9886 15.3908C26.9886 15.647 26.7825 15.8519 26.525 15.8519C26.2674 15.8519 26.0614 15.647 26.0614 15.3908V14.1583C26.0614 13.9021 26.2674 13.6972 26.525 13.6972C26.7825 13.6972 26.9886 13.9021 26.9886 14.1583V15.3908ZM30.4626 15.5701C30.4626 15.8263 30.2566 16.0312 29.999 16.0312C29.7415 16.0312 29.5354 15.8263 29.5354 15.5701V14.3348C29.5354 14.0786 29.7415 13.8736 29.999 13.8736C30.2566 13.8736 30.4626 14.0786 30.4626 14.3348V15.5701ZM33.9366 15.3908C33.9366 15.647 33.7306 15.8519 33.473 15.8519C33.2155 15.8519 33.0095 15.647 33.0095 15.3908V14.1583C33.0095 13.9021 33.2155 13.6972 33.473 13.6972C33.7306 13.6972 33.9366 13.9021 33.9366 14.1583V15.3908ZM37.4107 14.8642C37.4107 15.1204 37.2046 15.3253 36.9471 15.3253C36.6895 15.3253 36.4835 15.1204 36.4835 14.8642V13.6288C36.4835 13.3727 36.6895 13.1677 36.9471 13.1677C37.2046 13.1677 37.4107 13.3727 37.4107 13.6288V14.8642ZM40.8875 14.0729C40.8875 14.3291 40.6815 14.534 40.424 14.534C40.1664 14.534 39.9604 14.3291 39.9604 14.0729V12.8375C39.9604 12.5814 40.1664 12.3764 40.424 12.3764C40.6815 12.3764 40.8875 12.5814 40.8875 12.8375V14.0729ZM44.3616 12.607C44.3616 12.8632 44.1555 13.0681 43.898 13.0681C43.6404 13.0681 43.4344 12.8632 43.4344 12.607V11.3716C43.4344 11.1154 43.6404 10.9105 43.898 10.9105C44.1555 10.9105 44.3616 11.1154 44.3616 11.3716V12.607Z" fill="white"/>
<path d="M13.3042 34.5869V38.367C13.3042 41.7799 21.5829 43.6528 29.5354 43.7211V49.747C27.9358 49.969 26.6995 51.3382 26.6995 52.9948C26.6995 53.4645 26.7968 53.9284 26.9886 54.344L19.328 59.1431C19.1105 59.2826 19.0446 59.5672 19.1849 59.7807C19.2736 59.9202 19.4224 59.997 19.5798 59.997C19.6628 59.997 19.7457 59.9743 19.8259 59.9287L27.4922 55.1182C28.1046 55.8526 29.0175 56.2767 30.0019 56.2767C30.9805 56.2767 31.8934 55.8526 32.5115 55.1182L40.1779 59.9287C40.258 59.9743 40.341 59.997 40.4297 59.997C40.5813 59.997 40.7302 59.9202 40.8189 59.7807C40.9591 59.5672 40.8933 59.2826 40.6758 59.1431L33.0152 54.344C33.2069 53.9227 33.3042 53.4673 33.3042 52.9977C33.3042 51.341 32.0708 49.969 30.4683 49.7499V43.724C38.4237 43.6528 46.6995 41.7827 46.6995 38.3698V34.5898V33.6647V32.3582C43.8465 35.5035 35.0612 36.4115 30.0047 36.4115C24.9482 36.4115 16.1601 35.5063 13.3099 32.3582V33.6647M16.5636 37.1373C16.5636 37.3935 16.3576 37.5984 16.1 37.5984C15.8425 37.5984 15.6364 37.3935 15.6364 37.1373V35.902C15.6364 35.6458 15.8425 35.4408 16.1 35.4408C16.3576 35.4408 16.5636 35.6458 16.5636 35.902V37.1373ZM20.0376 38.6032C20.0376 38.8594 19.8316 39.0644 19.5741 39.0644C19.3165 39.0644 19.1105 38.8594 19.1105 38.6032V37.3679C19.1105 37.1117 19.3165 36.9068 19.5741 36.9068C19.8316 36.9068 20.0376 37.1117 20.0376 37.3679V38.6032ZM23.5117 39.3917C23.5117 39.6479 23.3056 39.8528 23.0481 39.8528C22.7905 39.8528 22.5845 39.6479 22.5845 39.3917V38.1563C22.5845 37.9002 22.7905 37.6952 23.0481 37.6952C23.3056 37.6952 23.5117 37.9002 23.5117 38.1563V39.3917ZM26.9886 39.9211C26.9886 40.1773 26.7825 40.3823 26.525 40.3823C26.2674 40.3823 26.0614 40.1773 26.0614 39.9211V38.6886C26.0614 38.4324 26.2674 38.2275 26.525 38.2275C26.7825 38.2275 26.9886 38.4324 26.9886 38.6886V39.9211ZM30.4626 40.0976C30.4626 40.3538 30.2566 40.5587 29.999 40.5587C29.7415 40.5587 29.5354 40.3538 29.5354 40.0976V38.8623C29.5354 38.6061 29.7415 38.4011 29.999 38.4011C30.2566 38.4011 30.4626 38.6061 30.4626 38.8623V40.0976ZM33.9366 39.9211C33.9366 40.1773 33.7306 40.3823 33.473 40.3823C33.2155 40.3823 33.0095 40.1773 33.0095 39.9211V38.6886C33.0095 38.4324 33.2155 38.2275 33.473 38.2275C33.7306 38.2275 33.9366 38.4324 33.9366 38.6886V39.9211ZM37.4107 39.3917C37.4107 39.6479 37.2046 39.8528 36.9471 39.8528C36.6895 39.8528 36.4835 39.6479 36.4835 39.3917V38.1563C36.4835 37.9002 36.6895 37.6952 36.9471 37.6952C37.2046 37.6952 37.4107 37.9002 37.4107 38.1563V39.3917ZM40.8875 38.6032C40.8875 38.8594 40.6815 39.0644 40.424 39.0644C40.1664 39.0644 39.9604 38.8594 39.9604 38.6032V37.3679C39.9604 37.1117 40.1664 36.9068 40.424 36.9068C40.6815 36.9068 40.8875 37.1117 40.8875 37.3679V38.6032ZM44.3616 37.1373C44.3616 37.3935 44.1555 37.5984 43.898 37.5984C43.6404 37.5984 43.4344 37.3935 43.4344 37.1373V35.902C43.4344 35.6458 43.6404 35.4408 43.898 35.4408C44.1555 35.4408 44.3616 35.6458 44.3616 35.902V37.1373Z" fill="white"/>
<path d="M59.8629 21.5275L56.6922 18.3794C56.5119 18.1943 56.22 18.1943 56.0369 18.3794L53.0035 21.3937H46.6936V15.8489C43.8405 18.9913 35.0553 19.8965 29.9988 19.8965C24.9423 19.8965 16.1542 18.9913 13.304 15.8489V21.3937H6.99408L3.96074 18.3794C3.78045 18.1943 3.48857 18.1943 3.30542 18.3794L0.134724 21.5275C-0.0455591 21.7125 -0.0455591 22.0029 0.134724 22.1822L3.30542 25.336C3.39413 25.4243 3.5086 25.4698 3.63451 25.4698C3.7547 25.4698 3.87489 25.4243 3.96074 25.336L6.99408 22.316H13.3612C14.0852 25.504 22.2724 27.2175 29.9988 27.2175C37.7252 27.2175 45.9124 25.504 46.6364 22.316H53.0035L56.0369 25.336C56.1199 25.4243 56.24 25.4698 56.3631 25.4698C56.489 25.4698 56.6035 25.4243 56.6922 25.336L59.8629 22.1822C60.0432 22.0029 60.0432 21.7125 59.8629 21.5275ZM16.5634 20.4772C16.5634 20.7334 16.3574 20.9383 16.0998 20.9383C15.8423 20.9383 15.6362 20.7334 15.6362 20.4772V19.2418C15.6362 18.9856 15.8423 18.7807 16.0998 18.7807C16.3574 18.7807 16.5634 18.9856 16.5634 19.2418V20.4772ZM20.0374 21.9431C20.0374 22.1993 19.8314 22.4042 19.5738 22.4042C19.3163 22.4042 19.1103 22.1993 19.1103 21.9431V20.7106C19.1103 20.4544 19.3163 20.2495 19.5738 20.2495C19.8314 20.2495 20.0374 20.4544 20.0374 20.7106V21.9431ZM23.5115 22.7344C23.5115 22.9906 23.3054 23.1955 23.0479 23.1955C22.7903 23.1955 22.5843 22.9906 22.5843 22.7344V21.4991C22.5843 21.2429 22.7903 21.0379 23.0479 21.0379C23.3054 21.0379 23.5115 21.2429 23.5115 21.4991V22.7344ZM26.9884 23.261C26.9884 23.5172 26.7823 23.7221 26.5248 23.7221C26.2672 23.7221 26.0612 23.5172 26.0612 23.261V22.0256C26.0612 21.7695 26.2672 21.5645 26.5248 21.5645C26.7823 21.5645 26.9884 21.7695 26.9884 22.0256V23.261ZM30.4624 23.4403C30.4624 23.6965 30.2563 23.9014 29.9988 23.9014C29.7413 23.9014 29.5352 23.6965 29.5352 23.4403V22.205C29.5352 21.9488 29.7413 21.7438 29.9988 21.7438C30.2563 21.7438 30.4624 21.9488 30.4624 22.205V23.4403ZM33.9364 23.261C33.9364 23.5172 33.7304 23.7221 33.4728 23.7221C33.2153 23.7221 33.0092 23.5172 33.0092 23.261V22.0256C33.0092 21.7695 33.2153 21.5645 33.4728 21.5645C33.7304 21.5645 33.9364 21.7695 33.9364 22.0256V23.261ZM37.4104 22.7344C37.4104 22.9906 37.2044 23.1955 36.9469 23.1955C36.6893 23.1955 36.4833 22.9906 36.4833 22.7344V21.4991C36.4833 21.2429 36.6893 21.0379 36.9469 21.0379C37.2044 21.0379 37.4104 21.2429 37.4104 21.4991V22.7344ZM40.8873 21.9431C40.8873 22.1993 40.6813 22.4042 40.4238 22.4042C40.1662 22.4042 39.9602 22.1993 39.9602 21.9431V20.7106C39.9602 20.4544 40.1662 20.2495 40.4238 20.2495C40.6813 20.2495 40.8873 20.4544 40.8873 20.7106V21.9431ZM44.3614 20.4772C44.3614 20.7334 44.1553 20.9383 43.8978 20.9383C43.6402 20.9383 43.4342 20.7334 43.4342 20.4772V19.2418C43.4342 18.9856 43.6402 18.7807 43.8978 18.7807C44.1553 18.7807 44.3614 18.9856 44.3614 19.2418V20.4772Z" fill="white"/>
<path d="M46.6938 5.36268C46.6938 8.32582 39.2192 10.7254 29.999 10.7254C20.7788 10.7254 13.3042 8.32298 13.3042 5.36268C13.3042 2.40239 20.7788 0 29.999 0C39.2192 0 46.6938 2.40239 46.6938 5.36268Z" fill="white"/>
<path d="M29.999 35.4893C38.0917 35.4893 46.6938 33.6107 46.6938 30.1266V24.0894C43.8408 27.2347 35.0555 28.1427 29.999 28.1427C24.9425 28.1427 16.1544 27.2375 13.3042 24.0894V30.1266C13.3042 33.6107 21.9063 35.4893 29.999 35.4893ZM43.4315 27.6303C43.4315 27.3741 43.6376 27.1692 43.8951 27.1692C44.1527 27.1692 44.3587 27.3741 44.3587 27.6303V28.8657C44.3587 29.1219 44.1527 29.3268 43.8951 29.3268C43.6376 29.3268 43.4315 29.1219 43.4315 28.8657V27.6303ZM39.9575 29.0962C39.9575 28.8401 40.1635 28.6351 40.4211 28.6351C40.6786 28.6351 40.8847 28.8401 40.8847 29.0962V30.3316C40.8847 30.5878 40.6786 30.7927 40.4211 30.7927C40.1635 30.7927 39.9575 30.5878 39.9575 30.3316V29.0962ZM36.4835 29.8875C36.4835 29.6314 36.6895 29.4264 36.9471 29.4264C37.2046 29.4264 37.4107 29.6314 37.4107 29.8875V31.1229C37.4107 31.3791 37.2046 31.584 36.9471 31.584C36.6895 31.584 36.4835 31.3791 36.4835 31.1229V29.8875ZM33.0095 30.4141C33.0095 30.158 33.2155 29.953 33.473 29.953C33.7306 29.953 33.9366 30.158 33.9366 30.4141V31.6495C33.9366 31.9057 33.7306 32.1106 33.473 32.1106C33.2155 32.1106 33.0095 31.9057 33.0095 31.6495V30.4141ZM29.5354 30.5935C29.5354 30.3373 29.7415 30.1323 29.999 30.1323C30.2566 30.1323 30.4626 30.3373 30.4626 30.5935V31.8288C30.4626 32.085 30.2566 32.2899 29.999 32.2899C29.7415 32.2899 29.5354 32.085 29.5354 31.8288V30.5935ZM26.0585 30.4141C26.0585 30.158 26.2646 29.953 26.5221 29.953C26.7797 29.953 26.9857 30.158 26.9857 30.4141V31.6495C26.9857 31.9057 26.7797 32.1106 26.5221 32.1106C26.2646 32.1106 26.0585 31.9057 26.0585 31.6495V30.4141ZM22.5845 29.8875C22.5845 29.6314 22.7905 29.4264 23.0481 29.4264C23.3056 29.4264 23.5117 29.6314 23.5117 29.8875V31.1229C23.5117 31.3791 23.3056 31.584 23.0481 31.584C22.7905 31.584 22.5845 31.3791 22.5845 31.1229V29.8875ZM19.1105 29.0962C19.1105 28.8401 19.3165 28.6351 19.5741 28.6351C19.8316 28.6351 20.0376 28.8401 20.0376 29.0962V30.3316C20.0376 30.5878 19.8316 30.7927 19.5741 30.7927C19.3165 30.7927 19.1105 30.5878 19.1105 30.3316V29.0962ZM15.6364 27.6303C15.6364 27.3741 15.8425 27.1692 16.1 27.1692C16.3576 27.1692 16.5636 27.3741 16.5636 27.6303V28.8657C16.5636 29.1219 16.3576 29.3268 16.1 29.3268C15.8425 29.3268 15.6364 29.1219 15.6364 28.8657V27.6303Z" fill="white"/>
<path d="M56.3628 0.105225C54.5114 0.105225 53.009 1.6053 53.009 3.45263C53.009 5.13772 54.2653 6.53532 55.8993 6.75734V9.13981H46.6934V10.0621H56.3628C56.6233 10.0621 56.8264 9.85426 56.8264 9.60093V6.75734C58.4604 6.53532 59.7224 5.13772 59.7224 3.45263C59.7224 1.6053 58.2143 0.105225 56.3628 0.105225Z" fill="white"/>
<path d="M13.3039 9.13712H4.09805V6.75466C5.73205 6.53264 6.98831 5.13504 6.98831 3.44995C6.98831 1.60261 5.48595 0.102539 3.63447 0.102539C1.78299 0.102539 0.274902 1.60261 0.274902 3.44995C0.274902 5.13504 1.53689 6.53264 3.17088 6.75466V9.59825C3.17088 9.85158 3.37406 10.0594 3.63447 10.0594H13.3039V9.13712Z" fill="white"/>
<path d="M46.6934 34.59H55.8993V36.9753C54.2653 37.1973 53.009 38.5892 53.009 40.2743C53.009 42.1216 54.5114 43.6217 56.3628 43.6217C58.2143 43.6217 59.7224 42.1216 59.7224 40.2743C59.7224 38.5892 58.4604 37.1945 56.8264 36.9753V34.1288C56.8264 33.8755 56.6233 33.6677 56.3628 33.6677H46.6934" fill="white"/>
<path d="M13.3039 34.587V33.6648H3.63447C3.37406 33.6648 3.17088 33.8726 3.17088 34.1259V36.9724C1.53689 37.1944 0.274902 38.5863 0.274902 40.2714C0.274902 42.1187 1.78299 43.6188 3.63447 43.6188C5.48595 43.6188 6.98831 42.1187 6.98831 40.2714C6.98831 38.5863 5.73205 37.1915 4.09805 36.9724V34.587H13.3039Z" fill="white"/>
</g>
<defs>
<clipPath id="clip0_151_45551">
<rect width="60" height="60" fill="white"/>
</clipPath>
</defs>
</svg>
