<svg width="73" height="62" viewBox="0 0 73 62" fill="none" xmlns="http://www.w3.org/2000/svg">
<g clip-path="url(#clip0_151_45564)">
<path d="M39.144 11.1655C33.6356 11.6011 29.0902 15.6018 28.0431 20.9093C25.5953 21.4739 21.8378 22.3869 20.6997 22.6483C20.5246 22.6936 20.395 22.8644 20.395 23.0839V25.3456C20.395 25.5617 20.5701 25.7812 20.8328 25.7812H23.5852V39.1772H20.8328C20.6156 39.1772 20.395 39.3515 20.395 39.6128V41.9617C20.395 42.223 20.6121 42.4391 20.8328 42.4391H59.2973C59.5599 42.4391 59.7771 42.223 59.7771 41.9617V39.6128C59.7771 39.3515 59.5599 39.1354 59.2973 39.1354H56.5869V25.7812H59.3393C59.5564 25.7812 59.7771 25.607 59.7771 25.3456V23.0839C59.7771 22.8678 59.6475 22.7354 59.4724 22.6936C58.3378 22.4322 54.5768 21.4774 52.1745 20.9093C51.0819 15.6018 46.5785 11.6011 41.0736 11.1655M42.1591 25.7812H45.1743V39.1772H42.1591V25.7812ZM37.9639 39.1772H34.9488V25.7812H37.9639V39.1772ZM27.7384 25.7812H30.7536V39.1772H27.7384V25.7812ZM52.3881 39.1772H49.373V25.7812H52.3881V39.1772Z" fill="white"/>
<path d="M25.9105 13.3471C24.6183 13.3471 23.5712 14.3891 23.5712 15.675V13.3262C23.9354 13.2704 24.2401 13.0474 24.3942 12.7268C24.7794 12.8592 25.2241 12.779 25.5323 12.4724L25.963 12.0437C26.2712 11.7371 26.3552 11.2945 26.2186 10.9111C26.5863 10.7334 26.842 10.364 26.842 9.92839V9.32201C26.842 8.8864 26.5863 8.517 26.2186 8.33927C26.3517 7.95593 26.2712 7.51335 25.963 7.20668L25.5323 6.77803C25.2241 6.47136 24.7794 6.38772 24.3942 6.52363C24.2156 6.15772 23.8444 5.90332 23.4066 5.90332H22.7973C22.3596 5.90332 21.9884 6.15772 21.8098 6.52363C21.4246 6.39121 20.9798 6.47136 20.6717 6.77803L20.2409 7.20668C19.9328 7.51335 19.8487 7.95593 19.9853 8.33927C19.6176 8.517 19.362 8.8864 19.362 9.32201V9.92839C19.362 10.364 19.6176 10.7334 19.9853 10.9111C19.8522 11.2945 19.9328 11.7371 20.2409 12.0437L20.6717 12.4724C20.9798 12.779 21.4246 12.8627 21.8098 12.7268C21.9639 13.0439 22.272 13.2704 22.6327 13.3262V16.609C22.6327 15.323 21.5857 14.281 20.2935 14.281H18.8892V14.748C18.8892 16.0339 19.9363 17.0759 21.2285 17.0759H22.6327V18.0064H14.2142V17.0759H15.6185C16.9107 17.0759 17.9577 16.0339 17.9577 14.748V14.281H16.5535C15.2613 14.281 14.2142 15.323 14.2142 16.609V13.3262C14.5784 13.2704 14.8831 13.0474 15.0372 12.7268C15.4224 12.8592 15.8671 12.779 16.1753 12.4724L16.606 12.0437C16.9142 11.7371 16.9982 11.2945 16.8616 10.9111C17.2293 10.7334 17.485 10.364 17.485 9.92839V9.32201C17.485 8.8864 17.2293 8.517 16.8616 8.33927C16.9947 7.95593 16.9142 7.51335 16.606 7.20668L16.1753 6.77803C15.8671 6.47136 15.4224 6.38772 15.0372 6.52363C14.8586 6.15772 14.4874 5.90332 14.0496 5.90332H13.4403C13.0026 5.90332 12.6314 6.15772 12.4528 6.52363C12.0676 6.39121 11.6228 6.47136 11.3147 6.77803L10.8839 7.20668C10.5758 7.51335 10.4917 7.95593 10.6283 8.33927C10.2606 8.517 10.005 8.8864 10.005 9.32201V9.92839C10.005 10.364 10.2606 10.7334 10.6283 10.9111C10.4952 11.2945 10.5758 11.7371 10.8839 12.0437L11.3147 12.4724C11.6228 12.779 12.0676 12.8627 12.4528 12.7268C12.6069 13.0439 12.915 13.2704 13.2757 13.3262V15.6785C13.2757 14.3926 12.2287 13.3506 10.9365 13.3506H9.53223V13.8175C9.53223 15.1035 10.5793 16.1455 11.8715 16.1455H13.2757V18.0064H11.2972V18.9369H25.4412V18.0064H23.5712V16.1455H24.9755C26.2677 16.1455 27.3147 15.1035 27.3147 13.8175V13.3471H25.9105ZM12.3442 9.62172C12.3442 8.85155 12.9711 8.22427 13.7485 8.22427C14.5224 8.22427 15.1527 8.84807 15.1527 9.62172C15.1527 10.3954 14.5259 11.0192 13.7485 11.0192C12.9711 11.0192 12.3442 10.3954 12.3442 9.62172ZM23.1055 11.0192C22.3316 11.0192 21.7012 10.3954 21.7012 9.62172C21.7012 8.84807 22.3281 8.22427 23.1055 8.22427C23.8794 8.22427 24.5097 8.84807 24.5097 9.62172C24.5097 10.3954 23.8794 11.0192 23.1055 11.0192Z" fill="white"/>
<path d="M17.0471 1.9864C16.8054 2.30701 16.6724 2.70429 16.6724 3.10505C16.6724 4.1331 17.5128 4.96599 18.5424 4.96599C19.5754 4.96599 20.4124 4.12962 20.4124 3.10505C20.4124 2.70429 20.2793 2.30701 20.0377 1.9864L18.5459 0L17.0471 1.9864Z" fill="white"/>
<path d="M15.1909 1.45676L16.1049 1.25464L16.308 2.1642L15.394 2.36632L15.1909 1.45676Z" fill="white"/>
<path d="M11.5244 5.88596H12.4594C12.4594 5.61065 12.4909 5.33534 12.554 5.07049L11.6435 4.85791C11.5664 5.19595 11.5279 5.54095 11.5244 5.88596Z" fill="white"/>
<path d="M14.5921 2.61716L14.2069 1.76685C13.8883 1.90973 13.5906 2.08746 13.314 2.29655L13.8813 3.03535C14.1019 2.87156 14.3435 2.72868 14.5921 2.61716Z" fill="white"/>
<path d="M13.2897 3.60684L12.5683 3.0144C12.3477 3.28274 12.1551 3.57547 12.001 3.88215L12.8414 4.29685C12.9605 4.05291 13.1111 3.8229 13.2897 3.60684Z" fill="white"/>
<path d="M23.8022 3.60684C23.9773 3.81942 24.1314 4.05291 24.2505 4.29685L25.0909 3.88215C24.9369 3.57199 24.7478 3.27926 24.5236 3.0144L23.8022 3.60684Z" fill="white"/>
<path d="M25.5637 5.88596C25.5637 5.54095 25.5217 5.19246 25.4447 4.85791L24.5342 5.07049C24.5972 5.33883 24.6287 5.61414 24.6287 5.88596H25.5637Z" fill="white"/>
<path d="M23.7743 2.29655C23.4976 2.08746 23.1965 1.90973 22.8813 1.76685L22.4961 2.61716C22.7482 2.72868 22.9864 2.87156 23.207 3.03884L23.7743 2.29655Z" fill="white"/>
<path d="M20.7803 2.16054L20.9834 1.25098L21.8974 1.4531L21.6943 2.36266L20.7803 2.16054Z" fill="white"/>
<path d="M26.3794 18.0029H27.3144V18.9334H26.3794V18.0029Z" fill="white"/>
<path d="M9.56348 18.0029H10.4985V18.9334H9.56348V18.0029Z" fill="white"/>
<path d="M50.4165 11.4374L53.9639 13.145V18.4281L59.77 20.2263L65.5761 18.4281V13.145L66.5741 12.6675V16.9505H68.122V11.9218L69.127 11.4374L59.7665 6.94531L50.4165 11.4374ZM64.0318 17.292L59.7735 18.6128L55.5152 17.292V13.8872L59.7735 15.9294L64.0318 13.8872V17.292ZM59.7735 14.2079L53.9814 11.4374L59.7735 8.6564L65.5656 11.4374L59.7735 14.2079Z" fill="white"/>
<path d="M33.8911 48.6666L42.5688 44.3L51.2464 48.6666C51.6211 48.8618 51.4845 49.4124 51.0678 49.4124H50.2764V50.2C50.2764 50.4161 50.0978 50.5938 49.8807 50.5938H35.2534C35.0363 50.5938 34.8577 50.4161 34.8577 50.2V49.4124H34.0662C33.653 49.4124 33.5164 48.8618 33.8911 48.6666ZM51.0643 59.6406H34.0697C33.8526 59.6406 33.674 59.8183 33.674 60.0344V61.9999H51.46V60.0344C51.46 59.8183 51.2849 59.6406 51.0643 59.6406ZM37.8237 51.3814H36.0448C35.9257 51.3814 35.8487 51.4615 35.8487 51.5765V56.8875H35.2569C35.0398 56.8875 34.8612 57.0653 34.8612 57.2813V58.8565H50.2764V57.2813C50.2764 57.0653 50.0978 56.8875 49.8807 56.8875H49.2889V51.5765C49.2889 51.458 49.2083 51.3814 49.0928 51.3814H47.3138C47.1947 51.3814 47.1177 51.4615 47.1177 51.5765V56.8875H45.5349V51.5765C45.5349 51.458 45.4543 51.3814 45.3388 51.3814H43.5598C43.4407 51.3814 43.3637 51.4615 43.3637 51.5765V56.8875H41.7809V51.5765C41.7809 51.458 41.7003 51.3814 41.5847 51.3814H39.8058C39.6867 51.3814 39.6097 51.4615 39.6097 51.5765V56.8875H38.0268V51.5765C38.0233 51.458 37.9428 51.3814 37.8237 51.3814Z" fill="white"/>
<path d="M72.587 27.5204C70.3073 27.4159 68.1291 26.5307 66.4307 25.0113L66.4062 24.9799L66.3782 24.973C66.3782 24.9695 66.3782 24.966 66.3782 24.959C66.3572 24.9416 66.3326 24.9277 66.3046 24.9207C66.2766 24.9102 66.2486 24.8998 66.2171 24.8963C66.1891 24.8893 66.1576 24.8893 66.126 24.8893C66.1015 24.8858 66.077 24.8858 66.0525 24.8893C66.021 24.8928 65.993 24.9033 65.9615 24.9137C65.9369 24.9242 65.9159 24.9346 65.8949 24.9486C65.8809 24.9555 65.8704 24.9625 65.8564 24.973H65.8389L65.8214 25.0113C64.1195 26.5272 61.9448 27.4124 59.6651 27.5204C59.5565 27.5239 59.4515 27.5727 59.3744 27.6494C59.2974 27.7295 59.2554 27.8341 59.2554 27.9421V32.7687C59.2554 33.5075 59.3744 34.2428 59.6126 34.9433C59.8857 35.7413 60.3059 36.4767 60.8592 37.1144C62.1164 38.5641 63.8323 39.7699 65.9509 40.7248C66.063 40.7735 66.1891 40.7735 66.3011 40.7248C68.4163 39.7699 70.1322 38.5606 71.3929 37.1144C71.9461 36.4767 72.3699 35.7413 72.6395 34.9433C72.8776 34.2428 72.9967 33.5075 72.9967 32.7687V27.9456C72.9967 27.8341 72.9547 27.7295 72.8776 27.6494C72.8041 27.5727 72.6991 27.5239 72.587 27.5204ZM64.3191 30.3467L63.286 31.0053L63.5977 32.1867C63.6152 32.2808 63.5767 32.3784 63.4961 32.4342C63.4576 32.4586 63.4156 32.469 63.3701 32.4725C63.3175 32.4725 63.265 32.4516 63.223 32.4167L62.274 31.6466L61.2409 32.3052C61.1569 32.361 61.0448 32.354 60.9678 32.2878C60.8942 32.2216 60.8662 32.117 60.9012 32.0229L61.346 30.8869L60.4005 30.1132C60.3234 30.0505 60.2919 29.9459 60.3199 29.8518C60.355 29.7543 60.4495 29.695 60.5546 29.702L61.7767 29.7717L62.2215 28.6356C62.26 28.5415 62.3545 28.4823 62.4561 28.4892C62.5576 28.4927 62.6452 28.5624 62.6697 28.6635L62.9814 29.8553L64.2035 29.925C64.3051 29.9355 64.3926 30.0052 64.4206 30.1028C64.4381 30.1934 64.3996 30.2909 64.3191 30.3467ZM70.752 36.5707C69.5299 37.9264 68.0416 39.0137 66.3782 39.7734V35.2325H71.6135C71.3929 35.7169 71.1022 36.163 70.752 36.5638V36.5707ZM72.1458 32.7792V33.1067V33.2705C72.1458 33.3263 72.1317 33.403 72.1282 33.4622L72.1002 33.6643L72.0722 33.8351C72.0512 33.9396 72.0302 34.0407 72.0092 34.1348L71.9742 34.2742C71.9742 34.3125 71.9532 34.3543 71.9426 34.3927H66.3782V31.2632H72.1458V32.7792ZM72.1458 30.4303H66.3782V26.0533C68.0346 27.3706 70.0481 28.1686 72.1598 28.3464L72.1458 30.4303Z" fill="white"/>
<path d="M31.4396 46.4331C27.9728 45.0043 24.2573 44.1331 20.5103 43.9797C20.6363 45.2238 20.5733 46.4645 20.3247 47.6772C20.2932 47.8933 20.1986 48.0815 20.1671 48.2975C20.3842 48.2348 20.6363 48.2348 20.8535 48.2662C21.6659 48.423 22.2892 49.0747 22.5379 50.0679C22.5694 50.2247 22.5379 50.378 22.4118 50.4721C22.3172 50.5976 22.1632 50.6289 22.0056 50.5976L19.4142 50.162C18.4757 51.8696 17.0399 53.2705 15.2925 54.0755C15.324 54.5425 15.387 54.9781 15.4781 55.4416C16.1014 58.456 18.4757 60.7561 21.5363 61.2823C24.597 61.8085 27.5946 60.4738 29.2474 57.8636C29.9653 56.7136 30.4346 55.4695 30.6832 54.1348L31.9019 47.2695C31.9369 46.9315 31.7828 46.5899 31.4396 46.4331ZM25.1643 57.0307L19.5753 56.0689C19.2636 56.0062 19.043 55.696 19.1691 55.3858C19.7294 53.8943 21.2912 52.9325 22.9476 53.2426C24.604 53.5214 25.7561 54.9502 25.7561 56.5672C25.7876 56.8425 25.5074 57.09 25.1643 57.0307ZM28.2214 51.4967C28.1268 51.6221 27.9728 51.6535 27.8152 51.6221L24.7861 51.0924C24.6285 51.0611 24.5059 50.967 24.4429 50.845C24.3798 50.7195 24.3798 50.5348 24.4744 50.4094C25.0067 49.5695 25.8471 49.1339 26.6596 49.2907C27.472 49.4476 28.0953 50.0992 28.344 51.0924C28.3475 51.2179 28.3159 51.3747 28.2214 51.4967Z" fill="white"/>
<path d="M18.6685 47.3356C18.9487 46.0322 18.9802 44.6627 18.7315 43.3593L17.5129 36.4627C17.4499 36.1212 17.1697 35.8737 16.8265 35.8424C12.0184 35.5949 7.14735 36.4627 2.71398 38.3271C2.40231 38.4526 2.21321 38.7941 2.27625 39.1356L3.4949 46.0322C3.74353 47.367 4.21278 48.6111 4.93066 49.7611C6.55553 52.3713 9.58465 53.7374 12.6418 53.1798C15.6709 52.6501 18.0452 50.35 18.6685 47.3356ZM6.36643 43.5126C6.20885 43.544 6.05476 43.4813 5.96021 43.3872C5.86566 43.2617 5.80263 43.1398 5.83415 42.9829C6.05126 42.0211 6.6781 41.3346 7.49053 41.1812C8.30296 41.0244 9.1154 41.46 9.6757 42.2999C9.77025 42.4254 9.77025 42.5787 9.70721 42.7355C9.64418 42.8923 9.52162 42.9829 9.36403 43.0143L6.36643 43.5126ZM11.8924 49.1687C10.236 49.4474 8.67766 48.517 8.11386 47.0254C7.9878 46.7153 8.20841 46.4051 8.52008 46.3424L14.1091 45.3806C14.4207 45.3178 14.7324 45.5653 14.7324 45.8789C14.7044 47.461 13.5488 48.8585 11.8924 49.1687ZM15.5133 41.6796C15.4503 41.805 15.3277 41.927 15.1701 41.9584L12.141 42.4881C11.9834 42.5194 11.8293 42.4567 11.7348 42.3626C11.6402 42.2372 11.5772 42.1152 11.6087 41.9584C11.8258 40.9965 12.4527 40.31 13.2651 40.1567C14.0775 39.9999 14.89 40.4355 15.4503 41.2753C15.5448 41.4008 15.5448 41.5541 15.5133 41.6796Z" fill="white"/>
<path d="M41.0666 11.1656V7.42627H46.0918C46.484 7.42627 46.7921 7.12308 46.7921 6.72928V3.20604C46.7921 2.81573 46.4875 2.50906 46.0918 2.50906H40.979V2.07345C40.979 1.55071 40.5413 1.1604 40.0615 1.1604C39.5818 1.1604 39.144 1.59601 39.144 2.07345V11.1656" fill="white"/>
<path d="M69.2215 47.7399L68.8153 47.5726L68.3285 45.7953C68.1184 45.0251 67.404 44.4919 66.6021 44.4919H59.2342C58.4287 44.4919 57.7248 45.0356 57.5077 45.7953L57.021 47.5726L56.6148 47.7399C55.9179 48.0152 55.4731 48.6773 55.4731 49.4196V52.1378C55.4731 52.6013 55.7218 53.0265 56.1175 53.2635V54.5285C56.1175 54.8142 56.226 55.093 56.4362 55.2986C56.6463 55.5077 56.9124 55.6158 57.2101 55.6158H57.5287C58.1241 55.6158 58.6213 55.1314 58.6213 54.5285V53.3436H59.3252H59.3742H59.4233H67.2569V54.5285C67.2569 55.1209 67.7437 55.6158 68.3495 55.6158H68.6682C68.8188 55.6158 68.9553 55.5844 69.0849 55.5356C69.2145 55.4868 69.3335 55.4067 69.4421 55.2986C69.6522 55.0895 69.7608 54.8247 69.7608 54.5285V53.2635C70.1565 53.0265 70.3946 52.6013 70.3946 52.1378V49.4301C70.3631 48.6808 69.9184 48.0187 69.2215 47.7399ZM57.8054 51.1202C57.5463 51.1202 57.2976 51.0227 57.112 50.8345C56.9334 50.6463 56.8249 50.3989 56.8249 50.1445C56.8249 49.6008 57.2626 49.1548 57.7984 49.1548C58.3342 49.1548 58.7719 49.6008 58.7719 50.1445C58.7684 50.6846 58.3412 51.1202 57.8054 51.1202ZM65.499 51.6534C65.4079 51.8033 65.2819 51.9287 65.1313 52.0089C64.9807 52.0995 64.8021 52.1378 64.634 52.1378H61.1777C60.8205 52.1378 60.4913 51.9496 60.3022 51.6534C60.1131 51.3363 60.1026 50.953 60.2812 50.6358C60.4598 50.3083 60.796 50.1236 61.1637 50.1236H64.6095C64.9877 50.1236 65.3134 50.3222 65.492 50.6358C65.6986 50.953 65.6881 51.3363 65.499 51.6534ZM61.9551 46.0323C61.8956 45.9417 61.766 45.9242 61.6785 45.9835L59.5143 47.5238H58.4217L58.8489 46.1891C58.947 45.9033 59.2061 45.7047 59.5143 45.7047H66.3149C66.6126 45.7047 66.8822 45.9033 66.9803 46.1786L67.418 47.5134H63.545L65.2644 46.2971C65.3554 46.2274 65.3729 46.1089 65.3134 46.0218C65.2539 45.9312 65.1243 45.9138 65.0368 45.973L62.8621 47.5238H60.2007L61.9201 46.3076C61.9936 46.2379 62.0146 46.1194 61.9551 46.0323ZM67.0573 50.1305C67.0573 49.5869 67.4951 49.1408 68.0309 49.1408C68.5666 49.1408 69.0044 49.5869 69.0044 50.1305C69.0044 50.6742 68.5666 51.1202 68.0309 51.1202C67.4951 51.1202 67.0573 50.6742 67.0573 50.1305Z" fill="white"/>
<path d="M2.91005 30.5905C2.20618 31.1934 1.63187 31.9461 1.25017 32.786C0.700374 32.1831 0.406217 31.4025 0.406217 30.5905C0.406217 30.1131 0.546292 29.6391 0.812434 29.2349L2.41629 26.7989C2.8085 26.196 3.02211 25.4851 3.02211 24.7707C3.02211 24.1539 2.86803 23.5545 2.57387 23.0073L2.22369 23.2025C2.47582 23.6939 2.6159 24.2236 2.6159 24.7707C2.6159 25.4154 2.41979 26.0427 2.0661 26.5759L0.462247 29.0118C0.154082 29.4718 0 30.0329 0 30.5905C0 32.6466 1.67389 34.3124 3.72599 34.3124C4.14621 34.3124 4.55593 34.2427 4.94814 34.1033C4.96215 33.9499 4.97616 33.7966 4.97616 33.6537C4.97616 32.312 4.16022 31.0958 2.91005 30.5905ZM3.02211 33.2634C2.84352 33.2634 2.69994 33.1205 2.69994 32.9428C2.69994 32.7651 2.84352 32.6222 3.02211 32.6222C3.20071 32.6222 3.34429 32.7651 3.34429 32.9428C3.34429 33.1205 3.20071 33.2634 3.02211 33.2634Z" fill="white"/>
<path d="M10.4742 22.7424C9.84036 22.7424 9.23804 23.0491 8.87034 23.5684C8.57619 23.3871 8.2365 23.2896 7.88632 23.2896C7.14042 23.2896 6.47856 23.7217 6.18441 24.3943C6.49257 24.2131 6.86027 24.1015 7.23847 24.1015C7.69021 24.1015 8.06841 24.227 8.44662 24.4919C8.76879 24.7288 8.96839 25.0947 8.96839 25.499V25.5129C8.95439 26.074 8.82832 26.6595 8.6042 27.1787C8.13845 28.1859 7.24197 28.8863 6.12838 29.0675L5.67664 29.1651C5.6066 28.97 5.56458 28.7609 5.56458 28.5483C5.56458 28.2556 5.59259 28.1022 5.70465 27.8339C5.0428 28.1963 4.60857 28.8271 4.4825 29.5833L3.13428 30.4092C4.41246 30.9842 5.2424 32.2562 5.2424 33.6572C5.2424 33.6572 5.21439 34.0057 5.2284 34.0057C6.97233 33.1797 6.61864 33.4028 8.06841 32.1308C8.29253 31.9356 8.58669 31.838 8.89836 31.838C9.33259 31.838 9.7283 32.0611 9.95242 32.427V32.3399C9.95242 32.089 9.95242 32.075 9.88238 31.8346C9.7283 31.3745 9.33259 31.0505 8.89836 30.9111C9.58823 29.7924 9.85437 29.0083 9.98043 27.7084L10.0225 25.9311L9.98043 24.5581C9.96643 24.5162 9.96643 24.4744 9.96643 24.4466C9.96643 23.9865 10.2046 23.5788 10.6143 23.3558C10.9505 23.1746 11.2341 23.1049 11.6123 23.1049C11.2621 22.8539 10.9119 22.7424 10.4742 22.7424Z" fill="white"/>
<path d="M10.2745 30.2455C10.362 30.2455 10.4356 30.3152 10.4356 30.4058C10.4356 30.4929 10.3655 30.5661 10.2745 30.5661C10.1869 30.5661 10.1134 30.4964 10.1134 30.4058C10.1134 30.3187 10.1834 30.2455 10.2745 30.2455ZM10.9363 29.3604C10.8453 29.3638 10.7647 29.4022 10.6982 29.4614C10.6387 29.4196 10.5721 29.4057 10.5091 29.4126C10.4356 29.4196 10.3655 29.4579 10.32 29.5067C10.236 29.5973 10.2009 29.7228 10.2289 29.8413L9.60562 30.7892C9.51457 30.9286 9.50756 31.1063 9.59161 31.2352C9.67565 31.3642 9.85775 31.4339 10.1099 31.3607L10.7787 31.162C10.6597 31.3642 10.7717 31.5768 10.9573 31.6848C10.8838 31.7615 10.8418 31.866 10.8523 31.974C10.8628 32.089 10.9293 32.1936 11.0309 32.2528C10.9819 32.3574 10.9854 32.4793 11.0414 32.5804C11.0939 32.678 11.1885 32.7442 11.297 32.7616C11.2585 32.8627 11.262 32.9777 11.3145 33.0753C11.3741 33.1833 11.4861 33.253 11.6052 33.26C11.6367 33.3819 11.7277 33.4656 11.8363 33.5178C11.8538 33.5841 11.8678 33.6572 11.8748 33.7409L12.0254 34.8735L11.8118 35.1801C11.8013 35.2045 11.8188 35.2324 11.8468 35.2324H12.3266C12.3476 35.2324 12.3651 35.2185 12.3651 35.1976L12.5297 33.3088C12.5787 33.5666 12.8904 33.6538 13.104 33.6642C13.2966 33.6747 13.5837 33.6538 13.7098 33.5178C13.7798 33.6015 13.8814 33.6538 13.9935 33.6538C14.1055 33.6538 14.2071 33.6015 14.2771 33.5178C14.3471 33.6015 14.4487 33.6538 14.5608 33.6538C14.6728 33.6538 14.7744 33.605 14.8444 33.5213C14.8899 33.5841 15.0335 33.6921 15.2436 33.6747C15.4397 33.6607 15.5343 33.5736 15.5973 33.5109C15.7024 33.6119 15.867 33.6433 16.0351 33.6224C16.1366 33.7618 16.1786 33.9639 16.1226 34.1835L16.0315 34.9083L15.8039 35.1871C15.7969 35.2115 15.8179 35.2359 15.8424 35.2359H16.3572C16.3747 35.2359 16.3922 35.222 16.3957 35.2045L16.6374 34.0615C16.6934 33.7897 16.6619 33.5666 16.5603 33.3192C16.7074 33.1171 16.7249 32.8627 16.6234 32.6884C16.7144 32.6397 16.7845 32.556 16.809 32.4515C16.837 32.3399 16.809 32.2215 16.7354 32.1343C16.8195 32.0577 16.865 31.9462 16.8545 31.8311C16.844 31.7161 16.7774 31.6151 16.6794 31.5558C16.7319 31.4548 16.7354 31.3328 16.6864 31.2283C16.6374 31.1237 16.5393 31.0505 16.4273 31.0296C16.4448 30.9181 16.4062 30.8031 16.3222 30.7195C16.2382 30.6358 16.1121 30.5975 15.9965 30.6184C15.93 30.5208 15.8179 30.4581 15.6954 30.4581C15.5833 30.4581 15.4818 30.5104 15.4117 30.594C15.3417 30.5104 15.2401 30.4581 15.1281 30.4581C15.016 30.4581 14.9145 30.5104 14.8444 30.594C14.7744 30.5104 14.6728 30.4581 14.5608 30.4581C14.4487 30.4581 14.3471 30.5104 14.2771 30.594C14.2071 30.5104 14.1055 30.4581 13.9935 30.4581C13.8814 30.4581 13.7798 30.5104 13.7098 30.594C13.6398 30.5104 13.5382 30.4581 13.4262 30.4581C13.3141 30.4581 13.2125 30.5104 13.1425 30.594C13.0725 30.5104 12.9709 30.4581 12.8589 30.4581C12.7608 30.4581 12.6698 30.4964 12.5997 30.5626C12.5752 30.472 12.5122 30.3919 12.4281 30.3431C12.3301 30.2873 12.218 30.2804 12.1165 30.3222C12.0989 30.2142 12.0324 30.1201 11.9379 30.0643C11.8678 30.026 11.7873 30.0085 11.7102 30.019C11.8013 29.8901 11.8468 29.7332 11.8468 29.5172C11.8468 29.4963 11.8293 29.4788 11.8048 29.4788C11.6227 29.4928 11.4301 29.5032 11.2795 29.6357C11.255 29.5381 11.199 29.451 11.1079 29.4022C11.0484 29.3708 10.9924 29.3604 10.9363 29.3604Z" fill="white"/>
<path d="M19.6702 27.0812C19.6457 27.0638 19.6177 27.0498 19.5862 27.0464C19.5932 26.9348 19.6072 26.8268 19.6282 26.7188C19.7893 25.8266 19.6492 25.2656 19.4741 24.931C19.3901 24.6348 19.1835 24.3874 18.9068 24.2445C18.6091 24.0946 18.1224 23.9831 17.7372 24.1713C16.9002 24.579 15.6361 24.3978 15.2719 24.3351C15.1843 24.3142 15.1003 24.2863 15.0197 24.2515C14.526 24.0424 14.1618 24.1783 13.9867 24.2759C13.9762 24.2828 13.9657 24.2898 13.9552 24.2933C13.8991 24.6906 13.7521 25.0669 13.5174 25.391C13.5069 25.4084 13.4894 25.4189 13.4719 25.4224C13.4544 25.4259 13.4334 25.4224 13.4194 25.4119C13.4054 25.4015 13.3914 25.3841 13.3879 25.3666C13.3844 25.3492 13.3879 25.3283 13.3984 25.3144C14.3544 23.8995 13.3949 22.9725 13.3809 22.9586C13.3563 22.9376 13.3248 22.9342 13.2968 22.9516C13.2688 22.969 13.2548 22.9969 13.2618 23.0248C13.2863 23.1572 13.2968 23.2931 13.2968 23.429V23.4325C13.2968 23.5998 13.2793 23.7671 13.2373 23.9274C13.1988 24.0772 13.1357 24.2201 13.0447 24.349C13.0377 24.3595 13.0307 24.3665 13.0237 24.3769C12.9431 24.478 12.8416 24.5616 12.726 24.6243C12.691 24.6418 12.649 24.6278 12.6315 24.5965C12.6139 24.5616 12.628 24.5198 12.6595 24.5024C12.7295 24.464 12.796 24.4152 12.8521 24.3595C12.1762 24.1957 11.9311 24.2968 11.8715 24.3316C11.5004 24.4501 11.3568 25.0669 11.3533 25.0948C11.3533 25.0983 11.3533 25.1018 11.3533 25.1053C11.3498 25.168 11.3358 25.2272 11.3112 25.2865L10.842 25.8928C10.765 25.9416 10.7159 26.0183 10.7019 26.1089C10.6984 26.203 10.7299 26.2936 10.793 26.3598L11.0241 26.5933C11.0241 26.5933 11.0276 26.5968 11.0311 26.5968C11.1642 26.7083 11.3568 26.6107 11.3638 26.6038C11.3743 26.6003 11.3813 26.5933 11.3883 26.5863C11.4163 26.5515 11.5354 26.5097 11.6509 26.4888C11.714 26.4818 11.777 26.4783 11.8435 26.4818C12.0957 26.4748 12.3478 26.4191 12.5789 26.3145C12.7715 26.2309 12.9466 26.1159 13.0937 25.9695C13.1217 25.9416 13.1637 25.9382 13.1953 25.966C13.2268 25.9939 13.2268 26.0357 13.1988 26.0671C13.0027 26.2622 12.7645 26.4086 12.5019 26.4992C12.6805 26.7188 12.9046 27.008 13.0202 27.2868C13.1217 27.5342 13.3703 27.6039 13.626 27.6423C13.6575 27.6492 13.6855 27.6632 13.7135 27.6771C13.8641 27.7433 14.0252 27.7852 14.1898 27.8026C14.1828 27.7468 14.1758 27.6911 14.1723 27.6318C14.1653 27.5656 14.1618 27.4959 14.1618 27.4262C14.0252 27.2938 13.9552 27.1056 13.9797 26.9174C13.9832 26.8791 14.0217 26.8512 14.0602 26.8582C14.0987 26.8617 14.1268 26.9 14.1197 26.9383C14.1022 27.0917 14.1618 27.245 14.2773 27.3461C14.2913 27.36 14.3018 27.3774 14.3018 27.3983C14.3053 27.475 14.3089 27.5517 14.3159 27.6248C14.3194 27.6736 14.3229 27.7189 14.3299 27.7677C14.3614 27.9873 14.4069 28.2068 14.4699 28.4194C14.519 28.5832 14.5575 28.7505 14.589 28.9177C14.5925 28.9421 14.596 28.9665 14.603 28.9944C14.631 29.1512 14.6695 29.3812 14.638 29.5172C14.5505 29.5625 14.3124 29.7053 14.3053 29.9563C14.3053 29.9737 14.3124 29.9946 14.3264 30.0085C14.3404 30.0225 14.3579 30.0294 14.3789 30.0294H15.1808C15.2018 30.0294 15.2193 30.0225 15.2333 30.005C15.2474 29.9911 15.2544 29.9702 15.2509 29.9528C15.2509 29.9528 15.2368 29.8099 15.2193 29.6287C15.2298 29.6147 15.2439 29.5973 15.2544 29.5834C15.3034 29.5415 15.3349 29.4823 15.3349 29.4161C15.3104 29.1199 15.3524 28.8097 15.3979 28.4787C15.4084 28.402 15.4189 28.3218 15.4295 28.2452C15.461 28.0221 15.475 27.7991 15.4785 27.5726C15.4785 27.4924 15.4785 27.4158 15.4715 27.3321C15.4715 27.3217 15.4715 27.3112 15.475 27.3042C15.517 27.2101 15.538 27.1091 15.5415 27.0045C15.538 26.9662 15.566 26.9313 15.6045 26.9279C15.6431 26.9244 15.6781 26.9523 15.6816 26.9906C15.6816 27.1091 15.6606 27.2311 15.615 27.3426C15.6221 27.4506 15.6221 27.5517 15.6186 27.6527C15.6851 27.6423 15.7481 27.6388 15.8147 27.6423C16.0843 27.6562 16.3469 27.7364 16.6166 27.7364H16.6201C16.8477 27.7294 17.0683 27.6702 17.2644 27.5551C17.2154 27.3217 17.2189 27.0847 17.2714 26.8512C17.2819 26.8129 17.317 26.7885 17.3555 26.7989C17.394 26.8059 17.4185 26.8442 17.408 26.8826C17.3625 27.0777 17.3555 27.2798 17.3905 27.4785C17.429 27.7085 17.5271 27.9246 17.6706 28.1058C17.7617 28.2173 17.8773 28.3044 17.9683 28.4124L18.3325 29.5276C18.3325 29.5346 18.329 29.5381 18.3255 29.545C18.2765 29.5659 18.0243 29.6775 18.0138 29.9493C18.0138 29.9667 18.0208 29.9876 18.0348 30.0016C18.0488 30.0155 18.0664 30.0225 18.0874 30.0225H18.8823C18.9033 30.0225 18.9208 30.0155 18.9348 29.9981C18.9488 29.9841 18.9558 29.9632 18.9523 29.9423C18.9523 29.9423 18.9418 29.8378 18.9208 29.667C18.9313 29.6531 18.9453 29.6391 18.9593 29.6252C19.0119 29.5869 19.0469 29.5241 19.0469 29.4579C18.9838 28.9003 19.0014 28.3358 19.0959 27.7852C19.1134 27.6632 19.1414 27.5412 19.1659 27.4227C19.208 27.245 19.2395 27.0603 19.2605 26.8791C19.271 26.7641 19.2745 26.6491 19.2745 26.5341C19.271 26.3563 19.285 26.1786 19.3165 26.0044C19.341 25.8998 19.3691 25.7988 19.4041 25.7012C19.4391 25.6001 19.4671 25.4991 19.4916 25.3945C19.5687 25.7081 19.5967 26.1333 19.4916 26.6979C19.4671 26.8233 19.4531 26.9488 19.4426 27.0777C19.4076 27.0951 19.3796 27.1195 19.355 27.1509C19.1204 27.4471 19.2605 28.0152 19.4146 28.2138C19.4846 28.3079 19.5722 28.3846 19.6702 28.4508C19.6947 28.4647 19.7227 28.4647 19.7473 28.4508C19.7718 28.4333 19.7858 28.3985 19.7753 28.3706C19.7578 28.2277 19.7613 28.0814 19.7788 27.9385C19.7858 27.8862 19.7893 27.8339 19.7928 27.7782C19.7998 27.353 19.7648 27.1509 19.6702 27.0812ZM10.8735 26.2622H10.8035C10.765 26.2622 10.7334 26.2309 10.7334 26.1926C10.7334 26.1542 10.765 26.1229 10.8035 26.1229H10.8735C10.912 26.1229 10.9436 26.1542 10.9436 26.1926C10.9436 26.2309 10.912 26.2622 10.8735 26.2622ZM12.0782 25.1227C12.0642 25.154 12.0396 25.1819 12.0116 25.1994C11.9766 25.2237 11.9346 25.2377 11.8891 25.2377C11.8786 25.2377 11.8715 25.2342 11.868 25.2237C11.868 25.2133 11.8715 25.2028 11.8751 25.1959C11.9241 25.1053 11.9311 25.0565 11.9451 25.0425C11.9661 25.0216 11.9976 25.0181 12.0256 25.0321C12.0606 25.053 12.0922 25.0774 12.0782 25.1227Z" fill="white"/>
</g>
<defs>
<clipPath id="clip0_151_45564">
<rect width="73" height="62" fill="white"/>
</clipPath>
</defs>
</svg>
