<svg width="58" height="63" viewBox="0 0 58 63" fill="none" xmlns="http://www.w3.org/2000/svg">
<path d="M29.3246 2.33388L25.82 10.6853C24.9337 12.5495 27.8788 13.7492 28.596 11.8131L32.1071 3.46008C33.0096 1.3243 29.9962 0.741232 29.3246 2.33388Z" fill="#524B4E"/>
<path d="M20.1282 -2.20501e-05C19.3005 0.0159524 18.6353 0.688477 18.6451 1.50637L18.6418 10.2843C18.5817 11.1406 19.2744 11.8642 20.1429 11.8642C21.0113 11.8642 21.7024 11.139 21.6439 10.2843L21.6471 1.50637C21.6666 0.670905 20.9771 -0.00960671 20.1282 -2.20501e-05Z" fill="#524B4E"/>
<path d="M38.1212 8.24597L31.8276 14.4584C30.4095 15.8562 32.5432 17.9409 33.9613 16.5463L40.2548 10.3322C41.816 8.79389 39.4612 6.92169 38.1212 8.24597Z" fill="#524B4E"/>
<path d="M12.2532 10.005C15.6944 14.2398 16.2099 16.7174 16.2879 25.219C16.3351 25.7622 16.8734 26.1312 17.4068 25.9842L52.9484 17.4602C54.8707 16.9986 56.8742 18.1999 57.3377 19.8277C57.7638 21.342 57.1702 23.0657 54.7194 23.767L24.3671 32.3772C22.4856 32.874 21.0789 34.4411 20.6512 36.4091C20.23 38.3596 20.7845 40.3852 22.1441 41.866C22.8173 42.5992 23.6516 43.1392 24.5476 43.4315C23.9248 44.1264 23.4727 44.9938 23.2662 45.965C22.8401 47.9139 23.393 49.9491 24.7526 51.4315C25.4014 52.1408 26.1983 52.6503 27.0553 52.9539C26.5447 53.5353 26.169 54.251 25.995 55.0497C25.621 56.7206 26.0422 58.5209 27.2765 59.7318C27.6765 60.1248 27.6879 60.4986 26.9577 60.6903L24.7948 61.2654C19.4656 62.6791 14.4064 63.6727 10.144 61.7462C5.59698 59.6951 2.27618 54.751 0.794666 49.1503C0.0108139 43.497 0.667818 37.612 2.3022 32.9203L5.89783 22.6088C7.21347 18.8356 6.58736 16.4315 4.92208 12.0832C2.7234 6.34523 10.1928 7.47302 12.2532 10.005Z" fill="#9B0047"/>
<path d="M40.9976 31.7829C41.9782 32.8388 42.5198 34.4379 42.0888 35.8021C41.5993 37.3804 40.7228 38.2302 39.3258 38.5976L26.9582 41.858C25.7662 42.1663 24.4391 41.7638 23.4683 40.6999C22.4844 39.6264 22.0892 38.1823 22.3933 36.7686C22.7007 35.3708 23.6374 34.3772 24.8278 34.0561L37.428 30.6551C38.7696 30.2925 40.217 30.9459 40.9976 31.7829Z" fill="#9B0047"/>
<path d="M43.6053 41.3501C44.586 42.4076 45.0006 43.9651 44.6998 45.3628C44.0948 46.9315 43.2882 47.7606 41.8978 48.1743L29.5659 51.4171C28.3739 51.7302 27.0517 51.3309 26.076 50.2718C25.0921 49.1999 24.7002 47.7398 25.0059 46.3261C25.3068 44.9283 26.2451 43.9443 27.4339 43.6232L40.1268 40.1967C41.4245 39.8437 42.867 40.5545 43.6053 41.3501Z" fill="#9B0047"/>
<path d="M43.7583 50.7366C44.6543 51.6072 44.9649 53.0321 44.7161 54.243C44.4787 55.3804 43.7892 56.2542 42.872 56.4954C39.0405 57.4826 31.3825 59.465 31.3825 59.465C30.4214 59.7126 29.3757 59.4059 28.587 58.5641C27.7934 57.7063 27.4698 56.5513 27.7235 55.4155C27.9706 54.3053 28.735 53.513 29.6896 53.2622L41.3921 50.1088C42.5483 49.7989 43.1013 50.096 43.7583 50.7366Z" fill="#9B0047"/>
</svg>
