<svg width="293" height="50" viewBox="0 0 293 50" fill="none" xmlns="http://www.w3.org/2000/svg">
<g clip-path="url(#clip0_140_108122)">
<path d="M67.9284 0.5867H76.6262L97.3933 47.9069H85.5271L81.4143 37.8808H62.8728L58.8954 47.9069H47.2983L67.9284 0.5867ZM71.9752 14.3541L66.1766 29.0577H77.8415L71.9752 14.3541Z" fill="#9B0047"/>
<path d="M103.867 9.80913H90.2476V0.5867H128.006V9.80913H114.386V47.9052H103.867V9.80913Z" fill="#9B0047"/>
<path d="M141.488 0.5867H150.186L170.953 47.9052H159.087L154.974 37.8791H136.433L132.456 47.9052H120.858L141.488 0.5867ZM145.535 14.3541L139.737 29.0577H151.402L145.535 14.3541Z" fill="#9B0047"/>
<path d="M174.797 0.5867H207.866V10.2118H185.316V19.837H206.248V29.4621H185.316V47.9086H174.797V0.5867Z" fill="#9B0047"/>
<path d="M254.493 29.66C254.493 32.4668 254.065 35.0516 253.211 37.4127C252.357 39.7756 251.088 41.8235 249.402 43.5616C247.717 45.2997 245.614 46.6593 243.099 47.6385C240.581 48.6177 237.682 49.1081 234.401 49.1081C231.074 49.1081 228.153 48.6177 225.635 47.6385C223.118 46.6593 221.017 45.2997 219.331 43.5616C217.646 41.8235 216.375 39.7756 215.522 37.4127C214.668 35.0516 214.241 32.4668 214.241 29.66V0.5867H224.76V29.259C224.76 30.7287 224.996 32.0899 225.469 33.3359C225.941 34.5835 226.604 35.6643 227.458 36.5781C228.311 37.4919 229.335 38.2044 230.526 38.7172C231.717 39.23 233.008 39.4865 234.402 39.4865C235.795 39.4865 237.076 39.23 238.246 38.7172C239.415 38.2061 240.427 37.4919 241.281 36.5781C242.133 35.666 242.798 34.5853 243.27 33.3359C243.743 32.0899 243.979 30.7287 243.979 29.259V0.5867H254.498V29.66H254.493Z" fill="#9B0047"/>
<path d="M262.043 0.5867H272.562V38.2818H292.048V47.9069H262.045V0.5867H262.043Z" fill="#9B0047"/>
<path d="M33.6369 15.7893H14.9409V19.806H33.6369V15.7893ZM17.6909 18.7717C17.1319 18.7717 16.6787 18.3225 16.6787 17.7684C16.6787 17.2143 17.1319 16.7651 17.6909 16.7651C18.2499 16.7651 18.703 17.2143 18.703 17.7684C18.703 18.3225 18.2499 18.7717 17.6909 18.7717ZM20.585 18.7717C20.0259 18.7717 19.5728 18.3225 19.5728 17.7684C19.5728 17.2143 20.0259 16.7651 20.585 16.7651C21.144 16.7651 21.5971 17.2143 21.5971 17.7684C21.5971 18.3225 21.144 18.7717 20.585 18.7717Z" fill="#9B0047"/>
<path d="M14.9409 26.4522H33.6369V22.4355H14.9409V26.4522ZM20.585 23.4113C21.144 23.4113 21.5971 23.8605 21.5971 24.4146C21.5971 24.9687 21.144 25.4179 20.585 25.4179C20.0259 25.4179 19.5728 24.9687 19.5728 24.4146C19.5728 23.8605 20.0259 23.4113 20.585 23.4113ZM17.6909 23.4113C18.2499 23.4113 18.703 23.8605 18.703 24.4146C18.703 24.9687 18.2499 25.4179 17.6909 25.4179C17.1319 25.4179 16.6787 24.9687 16.6787 24.4146C16.6787 23.8605 17.1319 23.4113 17.6909 23.4113Z" fill="#9B0047"/>
<path d="M14.9409 33.1001H33.6369V29.0835H14.9409V33.1001ZM20.585 30.0592C21.144 30.0592 21.5971 30.5084 21.5971 31.0625C21.5971 31.6167 21.144 32.0658 20.585 32.0658C20.0259 32.0658 19.5728 31.6167 19.5728 31.0625C19.5728 30.5084 20.0259 30.0592 20.585 30.0592ZM17.6909 30.0592C18.2499 30.0592 18.703 30.5084 18.703 31.0625C18.703 31.6167 18.2499 32.0658 17.6909 32.0658C17.1319 32.0658 16.6787 31.6167 16.6787 31.0625C16.6787 30.5084 17.1319 30.0592 17.6909 30.0592Z" fill="#9B0047"/>
<path d="M48.5777 24.4439C48.5777 11.6849 39.425 1.26474 27.9043 0.591858C27.0327 0.492044 26.1491 0.433533 25.2498 0.433533H0V37.2992L7.74993 30.973C6.88882 28.9148 6.42355 26.6535 6.44612 24.2804C6.53466 14.9564 14.2533 7.37746 23.6595 7.3723C33.1802 7.36713 40.9007 15.0235 40.8902 24.4628C40.8798 33.847 33.1264 41.5206 23.6595 41.5171C18.6109 41.5154 14.071 39.3591 10.9235 35.9276L0 44.6682V48.4559H25.2498C26.1491 48.4559 27.0345 48.3974 27.906 48.2976C39.425 47.6247 48.5777 37.2028 48.5777 24.4439Z" fill="#9B0047"/>
</g>
<defs>
<clipPath id="clip0_140_108122">
<rect width="292.048" height="48.6746" fill="white" transform="translate(0 0.433533)"/>
</clipPath>
</defs>
</svg>
