<svg width="161" height="27" viewBox="0 0 161 27" fill="none" xmlns="http://www.w3.org/2000/svg">
<g clip-path="url(#clip0_140_108018)">
<path d="M37.4476 0.0849609H42.2426L53.6911 26.3337H47.1495L44.8822 20.7722H34.6606L32.468 26.3337H26.0747L37.4476 0.0849609ZM39.6786 7.72179L36.4819 15.8779H42.9125L39.6786 7.72179Z" fill="white"/>
<path d="M57.2602 5.20068H49.752V0.0849609H70.5674V5.20068H63.0591V26.3327H57.2602V5.20068Z" fill="white"/>
<path d="M77.9999 0.0849609H82.7948L94.2433 26.3327H87.7017L85.4344 20.7712H75.2129L73.0202 26.3327H66.627L77.9999 0.0849609ZM80.2308 7.72179L77.0342 15.8779H83.4648L80.2308 7.72179Z" fill="white"/>
<path d="M96.3623 0.0849609H114.593V5.42406H102.161V10.7632H113.701V16.1022H102.161V26.3346H96.3623V0.0849609Z" fill="white"/>
<path d="M140.297 16.212C140.297 17.769 140.061 19.2028 139.59 20.5125C139.119 21.8232 138.42 22.9592 137.491 23.9233C136.561 24.8875 135.402 25.6416 134.015 26.1848C132.628 26.7279 131.029 27 129.22 27C127.387 27 125.776 26.7279 124.388 26.1848C123 25.6416 121.842 24.8875 120.913 23.9233C119.984 22.9592 119.283 21.8232 118.813 20.5125C118.342 19.2028 118.107 17.769 118.107 16.212V0.0849609H123.906V15.9896C123.906 16.8048 124.036 17.5599 124.296 18.2511C124.557 18.9431 124.922 19.5426 125.393 20.0495C125.863 20.5564 126.428 20.9516 127.084 21.2361C127.741 21.5206 128.453 21.6628 129.221 21.6628C129.989 21.6628 130.695 21.5206 131.34 21.2361C131.985 20.9526 132.542 20.5564 133.013 20.0495C133.483 19.5436 133.85 18.9441 134.11 18.2511C134.37 17.5599 134.501 16.8048 134.501 15.9896V0.0849609H140.3V16.212H140.297Z" fill="white"/>
<path d="M144.459 0.0849609H150.258V20.9946H161V26.3337H144.46V0.0849609H144.459Z" fill="white"/>
<path d="M18.5436 8.51782H8.23682V10.7459H18.5436V8.51782ZM9.75282 10.1721C9.44464 10.1721 9.19485 9.923 9.19485 9.61562C9.19485 9.30823 9.44464 9.05908 9.75282 9.05908C10.061 9.05908 10.3108 9.30823 10.3108 9.61562C10.3108 9.923 10.061 10.1721 9.75282 10.1721ZM11.3483 10.1721C11.0401 10.1721 10.7903 9.923 10.7903 9.61562C10.7903 9.30823 11.0401 9.05908 11.3483 9.05908C11.6564 9.05908 11.9062 9.30823 11.9062 9.61562C11.9062 9.923 11.6564 10.1721 11.3483 10.1721Z" fill="white"/>
<path d="M8.23682 14.4326H18.5436V12.2046H8.23682V14.4326ZM11.3483 12.7459C11.6564 12.7459 11.9062 12.995 11.9062 13.3024C11.9062 13.6098 11.6564 13.8589 11.3483 13.8589C11.0401 13.8589 10.7903 13.6098 10.7903 13.3024C10.7903 12.995 11.0401 12.7459 11.3483 12.7459ZM9.75282 12.7459C10.061 12.7459 10.3108 12.995 10.3108 13.3024C10.3108 13.6098 10.061 13.8589 9.75282 13.8589C9.44464 13.8589 9.19485 13.6098 9.19485 13.3024C9.19485 12.995 9.44464 12.7459 9.75282 12.7459Z" fill="white"/>
<path d="M8.23682 18.1201H18.5436V15.8921H8.23682V18.1201ZM11.3483 16.4333C11.6564 16.4333 11.9062 16.6825 11.9062 16.9899C11.9062 17.2973 11.6564 17.5464 11.3483 17.5464C11.0401 17.5464 10.7903 17.2973 10.7903 16.9899C10.7903 16.6825 11.0401 16.4333 11.3483 16.4333ZM9.75282 16.4333C10.061 16.4333 10.3108 16.6825 10.3108 16.9899C10.3108 17.2973 10.061 17.5464 9.75282 17.5464C9.44464 17.5464 9.19485 17.2973 9.19485 16.9899C9.19485 16.6825 9.44464 16.4333 9.75282 16.4333Z" fill="white"/>
<path d="M26.7799 13.3186C26.7799 6.2412 21.7342 0.461073 15.3831 0.0878235C14.9026 0.0324565 14.4155 0 13.9197 0H0V20.4495L4.27238 16.9404C3.79767 15.7987 3.54118 14.5443 3.55362 13.2279C3.60243 8.0559 7.85758 3.85182 13.043 3.84896C18.2916 3.8461 22.5477 8.09313 22.542 13.3291C22.5362 18.5346 18.2619 22.7912 13.043 22.7892C10.2598 22.7883 7.75709 21.5922 6.02191 19.6887L0 24.5371V26.6382H13.9197C14.4155 26.6382 14.9036 26.6057 15.384 26.5504C21.7342 26.1771 26.7799 20.3961 26.7799 13.3186Z" fill="white"/>
</g>
<defs>
<clipPath id="clip0_140_108018">
<rect width="161" height="27" fill="white"/>
</clipPath>
</defs>
</svg>
