<svg width="63" height="67" viewBox="0 0 63 67" fill="none" xmlns="http://www.w3.org/2000/svg">
<g clip-path="url(#clip0_149_45469)">
<path d="M18.7405 21.9768L24.0135 19.755L29.2838 21.9768L28.7626 16.3638L32.5424 12.1225L26.9472 10.8773L24.0135 6.03198L21.0772 10.8773L15.4819 12.1225L19.2617 16.3638L18.7405 21.9768Z" fill="#9B0047"/>
<path d="M12.5605 31.7432L15.2247 38.6134L21.4725 29.3645C22.2997 29.5042 23.1458 29.592 24.0136 29.592C24.8813 29.592 25.7261 29.5028 26.5546 29.3645L32.8024 38.6134L35.4666 31.7432L42.9436 31.996L36.6932 22.7418C38.1904 20.4428 39.0691 17.7209 39.0691 14.7953C39.0691 6.63734 32.315 0 24.0136 0C15.7121 0 8.95805 6.63734 8.95805 14.7953C8.95805 17.7209 9.83801 20.4442 11.3339 22.7418L5.0835 31.996L12.5605 31.7432ZM24.0136 2.08606C31.1453 2.08606 36.9463 7.7868 36.9463 14.7953C36.9463 21.8038 31.1453 27.5046 24.0136 27.5046C16.8818 27.5046 11.0794 21.8038 11.0794 14.7953C11.0794 7.7868 16.8818 2.08606 24.0136 2.08606Z" fill="#524B4E"/>
<path d="M0.40625 55.9844H13.4392V67H0.40625V55.9844Z" fill="#9B0047"/>
<path d="M18.2437 52.6184H29.9607V67H18.2437V52.6184Z" fill="#524B4E"/>
<path d="M34.7642 55.1688H46.4799V67H34.7642V55.1688Z" fill="#9B0047"/>
<path d="M51.2827 47.845H62.9984V67H51.2841L51.2827 47.845Z" fill="#524B4E"/>
<path d="M24.1421 42.1562L40.8195 51.4584L58.4188 35.9965L58.393 42.4157L62.9418 42.4343L63 28.3228L48.6376 28.2616L48.6173 32.7317L55.2793 32.761L40.2252 45.9864L24.2626 37.0834L0 49.206L2.06182 53.1892L24.1421 42.1562Z" fill="#9B0047"/>
</g>
<defs>
<clipPath id="clip0_149_45469">
<rect width="63" height="67" fill="white"/>
</clipPath>
</defs>
</svg>
