<svg width="76" height="75" viewBox="0 0 76 75" fill="none" xmlns="http://www.w3.org/2000/svg">
<path d="M56.9091 6.19862C48.6615 -2.03373 35.2337 -2.02544 26.9861 6.19862C22.9932 10.1801 20.7876 15.4823 20.7876 21.1174C20.7876 26.7526 22.9919 32.0548 26.9861 36.0362C31.1106 40.1559 36.5332 42.2088 41.9476 42.2088C47.3702 42.2088 52.7846 40.149 56.9091 36.0362C60.902 32.0548 63.1076 26.7526 63.1076 21.1174C63.109 15.4823 60.9033 10.1801 56.9091 6.19862ZM53.2764 32.4139C50.2464 35.4353 46.2286 37.0972 41.949 37.0972C37.6693 37.0972 33.6432 35.4367 30.6215 32.4139C27.5999 29.4009 25.9332 25.3849 25.9332 21.1188C25.9332 16.8514 27.5985 12.8367 30.6215 9.82368C33.6515 6.80234 37.6693 5.14039 41.949 5.14039C46.2286 5.14039 50.2548 6.80096 53.2764 9.82368C56.2981 12.845 57.9731 16.8514 57.9731 21.1188C57.9731 25.3849 56.3078 29.4009 53.2764 32.4139Z" fill="#9B0047"/>
<path fill-rule="evenodd" clip-rule="evenodd" d="M74.5265 41.9974C74.4448 41.8841 74.3631 41.786 74.2813 41.6879C73.2353 40.475 71.7737 39.8312 70.2552 39.7331C68.7769 39.635 67.2252 40.0674 65.9672 40.9958C65.8453 41.0856 65.722 41.1837 65.6084 41.2804L54.2241 51.0117C54.0773 50.7354 53.9138 50.4743 53.7254 50.2214C52.7694 48.927 51.3161 47.9986 49.6009 47.7458L31.4792 45.0353L23.1319 43.7892C20.5189 43.3982 17.9794 44.1152 15.994 45.5727C14.7277 46.5094 13.6914 47.7472 13.0056 49.1964C12.9322 49.1646 12.8587 49.1232 12.7853 49.0983C12.0261 48.8372 11.1685 48.8621 10.4009 49.2364L1.00066 53.7982L0.935547 53.8313C4.25093 60.5661 7.5677 67.3009 10.8914 74.0274C14.0516 72.4967 17.2201 70.9743 20.3734 69.4271C21.141 69.0527 21.6799 68.4006 21.9418 67.6601L26.5553 67.1393C28.5476 67.4087 30.5482 67.6933 32.3867 67.953C43.1586 69.4671 48.1157 70.1689 52.4355 68.67C56.1347 67.3921 59.0427 64.6222 64.4321 59.4996C66.9481 57.1138 70.01 54.1974 73.856 50.7533C75.1306 49.6136 75.8081 48.123 75.9217 46.5757C76.0214 45.0021 75.5476 43.3734 74.5265 41.9974ZM72.2558 48.9933C68.2865 52.5438 65.2565 55.4187 62.7738 57.781C57.6199 62.6826 54.8351 65.3295 51.6431 66.4292C47.8705 67.732 43.0837 67.0564 32.6873 65.5989C30.9319 65.3544 29.02 65.0864 26.7008 64.7686L26.4154 64.7603L21.7852 65.2895V65.2812L14.8025 51.1028C15.2763 49.6122 16.1991 48.3495 17.4086 47.4543C18.9035 46.3546 20.814 45.8172 22.791 46.1101L31.1384 47.3562L49.2684 50.0681C50.3296 50.2311 51.2371 50.8086 51.8329 51.6071C52.4217 52.3973 52.7071 53.4072 52.5672 54.4488L52.4203 55.0429L52.4369 55.0595C52.1834 55.8815 51.6777 56.5736 51.0154 57.0626C50.2063 57.6567 49.1783 57.9427 48.1088 57.7879L28.2137 54.8315C27.5681 54.7334 26.964 55.1824 26.8656 55.8331C26.7673 56.4769 27.2176 57.0792 27.8701 57.1773L47.7486 60.1503C49.4554 60.4031 51.1138 59.9389 52.412 58.9857C53.7101 58.0324 54.6412 56.5833 54.8947 54.873L54.9848 54.2858L54.9598 54.261C54.9764 54.0081 54.9681 53.7553 54.9432 53.5122L67.1518 43.0722C67.2335 43.0073 67.307 42.9423 67.3804 42.8926C68.1729 42.3055 69.1607 42.0375 70.1083 42.0941C71.0144 42.1507 71.8803 42.5251 72.4844 43.2269C72.5412 43.2919 72.5911 43.3485 72.6312 43.4065C73.3004 44.3183 73.6108 45.3848 73.5373 46.4113C73.4653 47.3728 73.04 48.2929 72.2558 48.9933Z" fill="#524B4E"/>
<path d="M52.0754 21.1188C52.0754 20.5082 52.5742 20.0108 53.1866 20.0108H55.7025L55.6942 19.9293C55.4171 16.7118 53.9957 13.6753 51.7014 11.3944C49.4071 9.10667 46.3688 7.69754 43.142 7.41295L43.0603 7.40466V9.96182C43.0603 10.5724 42.5615 11.0698 41.9492 11.0698C41.3368 11.0698 40.838 10.5724 40.838 9.96182V7.40466L40.7563 7.41295C37.531 7.68925 34.4844 9.10667 32.197 11.3944C29.9027 13.6822 28.4895 16.7118 28.2041 19.9293L28.1958 20.0108H30.7118C31.3241 20.0108 31.8229 20.5082 31.8229 21.1188C31.8229 21.7294 31.3241 22.2268 30.7118 22.2268H28.1958L28.2041 22.3083C28.4812 25.5244 29.9027 28.5623 32.197 30.8432C34.483 33.1392 37.5296 34.5484 40.7563 34.8247L40.838 34.8329V32.3241C40.838 31.7135 41.3368 31.2162 41.9492 31.2162C42.5615 31.2162 43.0603 31.7135 43.0603 32.3241V34.8329L43.142 34.8247C46.3688 34.5484 49.4057 33.1309 51.7014 30.8432C53.9957 28.5554 55.4088 25.5258 55.6942 22.3083L55.7025 22.2268H53.1866C52.5742 22.2254 52.0754 21.7294 52.0754 21.1188ZM48.9318 22.2254H41.9658C41.3534 22.2254 40.8547 21.728 40.8547 21.1174V13.3976C40.8547 12.787 41.3534 12.2896 41.9658 12.2896C42.5782 12.2896 43.0769 12.787 43.0769 13.3976V20.0108H48.9332C49.5456 20.0108 50.0444 20.5082 50.0444 21.1188C50.043 21.728 49.5442 22.2254 48.9318 22.2254Z" fill="#9B0047"/>
</svg>
