<svg width="58" height="71" viewBox="0 0 58 71" fill="none" xmlns="http://www.w3.org/2000/svg">
<g clip-path="url(#clip0_181_35097)">
<path d="M45.0645 14H14.065C12.4495 14 11.1294 15.3225 11.1294 16.941V22.6844C11.1294 24.3121 12.4495 25.6254 14.065 25.6254H45.0645C46.68 25.6254 48.0002 24.3121 48.0002 22.6844V16.941C48.0002 15.3225 46.68 14 45.0645 14ZM16.9268 22.1017C15.6621 22.1017 14.6374 21.0751 14.6374 19.8173C14.6374 18.5503 15.6621 17.5237 16.9268 17.5237C18.1915 17.5237 19.2162 18.5503 19.2162 19.8173C19.2162 21.0751 18.1915 22.1017 16.9268 22.1017ZM34.4113 22.5364H24.7274C24.2105 22.5364 23.8043 22.1202 23.8043 21.6116C23.8043 21.1029 24.2105 20.6867 24.7274 20.6867H34.4113C34.9191 20.6867 35.3345 21.1029 35.3345 21.6116C35.3345 22.1202 34.9191 22.5364 34.4113 22.5364ZM34.4113 19.0312H24.7274C24.2105 19.0312 23.8043 18.615 23.8043 18.1064C23.8043 17.5884 24.2105 17.1815 24.7274 17.1815H34.4113C34.9191 17.1815 35.3345 17.5884 35.3345 18.1064C35.3345 18.615 34.9191 19.0312 34.4113 19.0312ZM40.7534 20.1503C40.7072 20.2613 40.6426 20.363 40.5503 20.4555C40.3841 20.6312 40.1533 20.7237 39.9041 20.7237C39.7749 20.7237 39.6548 20.7052 39.5441 20.659C39.4333 20.6127 39.3317 20.5387 39.2487 20.4555C39.1656 20.363 39.0917 20.2705 39.0456 20.1503C38.9994 20.0393 38.9809 19.9191 38.9809 19.7988C38.9809 19.6786 38.9994 19.5584 39.0456 19.4474C39.0917 19.3364 39.1656 19.2347 39.2487 19.1514C39.581 18.8 40.2087 18.8 40.5503 19.1514C40.6426 19.2347 40.7072 19.3364 40.7534 19.4474C40.7996 19.5584 40.8272 19.6786 40.8272 19.7988C40.8272 19.9191 40.7996 20.0393 40.7534 20.1503ZM45.0461 20.4555C44.8707 20.6312 44.6399 20.7237 44.3906 20.7237C44.1506 20.7237 43.9198 20.6312 43.7444 20.4555C43.569 20.2798 43.4675 20.0486 43.4675 19.7988C43.4675 19.5584 43.569 19.3179 43.7444 19.1422C43.8275 19.059 43.929 18.9942 44.0398 18.948C44.3814 18.8092 44.7876 18.8925 45.0461 19.1422C45.2215 19.3179 45.3138 19.5584 45.3138 19.7988C45.3138 20.0486 45.2215 20.2798 45.0461 20.4555Z" fill="#9B0047"/>
<path d="M45.0645 28.178H14.065C12.4495 28.178 11.1294 29.5005 11.1294 31.1283V36.8716C11.1294 38.4901 12.4495 39.8127 14.065 39.8127H45.0645C46.68 39.8127 48.0002 38.4901 48.0002 36.8716V31.1283C48.0002 29.5005 46.68 28.178 45.0645 28.178ZM16.9268 36.289C15.6621 36.289 14.6374 35.2624 14.6374 33.9953C14.6374 32.7283 15.6621 31.7109 16.9268 31.7109C18.1915 31.7109 19.2162 32.7283 19.2162 33.9953C19.2162 35.2624 18.1915 36.289 16.9268 36.289ZM34.4113 36.7236H24.7274C24.2105 36.7236 23.8043 36.3075 23.8043 35.7988C23.8043 35.2809 24.2105 34.8739 24.7274 34.8739H34.4113C34.9191 34.8739 35.3345 35.2809 35.3345 35.7988C35.3345 36.3075 34.9191 36.7236 34.4113 36.7236ZM34.4113 33.2092H24.7274C24.2105 33.2092 23.8043 32.8023 23.8043 32.2843C23.8043 31.7757 24.2105 31.3595 24.7274 31.3595H34.4113C34.9191 31.3595 35.3345 31.7757 35.3345 32.2843C35.3345 32.8023 34.9191 33.2092 34.4113 33.2092ZM40.5503 34.6335C40.3841 34.8092 40.1533 34.9109 39.9041 34.9109C39.7749 34.9109 39.6548 34.8832 39.5441 34.8369C39.4333 34.7907 39.3317 34.726 39.2487 34.6335C39.0733 34.467 38.9809 34.2265 38.9809 33.9861C38.9809 33.7364 39.0733 33.4959 39.2487 33.3294C39.5902 32.9872 40.2087 32.9872 40.5503 33.3294C40.7257 33.5051 40.8272 33.7364 40.8272 33.9861C40.8272 34.2265 40.7257 34.4577 40.5503 34.6335ZM45.2492 34.3375C45.203 34.4485 45.1384 34.5502 45.0461 34.6335C44.8707 34.8092 44.6399 34.9109 44.3906 34.9109C44.1506 34.9109 43.9198 34.8092 43.7444 34.6335C43.6521 34.5502 43.5875 34.4485 43.5413 34.3375C43.4952 34.2265 43.4675 34.1063 43.4675 33.9861C43.4675 33.7364 43.569 33.5051 43.7444 33.3294C43.8275 33.2462 43.929 33.1722 44.0398 33.126C44.3814 32.9872 44.7876 33.0705 45.0461 33.3294C45.2215 33.5051 45.3138 33.7364 45.3138 33.9861C45.3138 34.1063 45.2953 34.2265 45.2492 34.3375Z" fill="#9B0047"/>
<path d="M44.9351 42.3654H13.9356C12.3201 42.3654 11 43.6879 11 45.3064V51.0498C11 52.6775 12.3201 54 13.9356 54H44.9351C46.5506 54 47.8708 52.6775 47.8708 51.0498V45.3064C47.8708 43.6879 46.5506 42.3654 44.9351 42.3654ZM16.7974 50.4671C15.5327 50.4671 14.508 49.4405 14.508 48.1827C14.508 46.9156 15.5327 45.8891 16.7974 45.8891C18.0529 45.8891 19.0776 46.9156 19.0776 48.1827C19.0776 49.4405 18.0529 50.4671 16.7974 50.4671ZM34.2727 50.9018H24.5888C24.0811 50.9018 23.6657 50.4856 23.6657 49.9769C23.6657 49.4682 24.0811 49.0521 24.5888 49.0521H34.2727C34.7897 49.0521 35.1959 49.4682 35.1959 49.9769C35.1959 50.4856 34.7897 50.9018 34.2727 50.9018ZM34.2727 47.3966H24.5888C24.0811 47.3966 23.6657 46.9804 23.6657 46.4717C23.6657 45.963 24.0811 45.5469 24.5888 45.5469H34.2727C34.7897 45.5469 35.1959 45.963 35.1959 46.4717C35.1959 46.9804 34.7897 47.3966 34.2727 47.3966ZM40.4209 48.8208C40.2455 48.9966 40.0147 49.0891 39.7655 49.0891C39.6455 49.0891 39.5254 49.0706 39.4147 49.0243C39.3039 48.9781 39.2023 48.9041 39.11 48.8208C38.9439 48.6451 38.8423 48.4139 38.8423 48.1642C38.8423 48.044 38.87 47.9237 38.9162 47.8128C38.9623 47.7018 39.0269 47.6 39.11 47.5076C39.2023 47.4243 39.3039 47.3596 39.4147 47.3133C39.7562 47.1746 40.1624 47.2578 40.4209 47.5076C40.504 47.6 40.5778 47.7018 40.624 47.8128C40.6702 47.9237 40.6886 48.044 40.6886 48.1642C40.6886 48.4139 40.5963 48.6451 40.4209 48.8208ZM44.9167 48.8208C44.7413 48.9966 44.5105 49.0891 44.2612 49.0891C44.012 49.0891 43.7812 48.9966 43.615 48.8208C43.4304 48.6451 43.3381 48.4139 43.3381 48.1642C43.3381 48.044 43.3658 47.9237 43.4119 47.8128C43.4581 47.7018 43.5227 47.6 43.615 47.5168C43.6981 47.4243 43.7997 47.3596 43.9104 47.3133C44.252 47.1654 44.6582 47.2578 44.9167 47.5168C44.9997 47.6 45.0644 47.7018 45.1105 47.8128C45.1567 47.9237 45.1844 48.044 45.1844 48.1642C45.1844 48.4139 45.0921 48.6451 44.9167 48.8208Z" fill="#9B0047"/>
</g>
<path d="M28.4055 70.6363L29.001 70.9036L29.5965 70.6363C30.7438 70.1208 57.6831 57.8402 57.6831 41.993V10.392L56.3072 10.3161C56.131 10.3059 38.5481 9.24986 30.0085 1.06188L29.001 0.0964355L27.9949 1.06188C19.4684 9.23671 1.87242 10.3059 1.69479 10.3161L0.318848 10.3935V41.993C0.318848 57.8402 27.2581 70.1222 28.4055 70.6363ZM3.23089 13.1248C7.55963 12.7173 20.9099 10.9427 29.001 4.07942C37.0921 10.9412 50.4423 12.7173 54.7711 13.1248V41.9916C54.7711 54.7672 32.9162 65.815 29.001 67.6904C25.0828 65.815 3.23089 54.7789 3.23089 41.9916V13.1248Z" fill="#524B4E"/>
<defs>
<clipPath id="clip0_181_35097">
<rect width="37" height="40" fill="white" transform="translate(11 14)"/>
</clipPath>
</defs>
</svg>
