<svg width="64" height="56" viewBox="0 0 64 56" fill="none" xmlns="http://www.w3.org/2000/svg">
<g clip-path="url(#clip0_151_45541)">
<path fill-rule="evenodd" clip-rule="evenodd" d="M26.6913 32.3977V35.075C26.6913 35.5592 26.4817 35.9783 26.0825 36.274L21.6705 39.5849L17.2552 36.274C16.8626 35.9783 16.6463 35.5592 16.6463 35.075V32.336L16.297 31.9786C15.6548 31.3287 15.3154 30.5717 15.2589 29.6651L15.1524 28.1315L15.1324 28.1283C14.8197 28.034 14.5568 27.9268 14.3605 27.7708C14.1642 27.6149 14.0344 27.4069 13.8814 26.9975C13.735 26.5914 13.5686 25.9773 13.4455 25.4347C13.3257 24.8855 13.2525 24.4047 13.2192 23.9823C13.186 23.5599 13.1926 23.1992 13.2958 22.923C13.4022 22.6403 13.6717 22.4194 13.8614 22.3609C14.0511 22.2992 14.1509 22.3349 14.2341 22.3154C14.3206 22.2959 14.1908 22.2472 14.1908 22.205L14.1875 22.153C14.1675 22.127 14.1509 22.1075 14.1342 22.0847C13.4222 21.1717 12.8865 19.3879 12.7401 17.7925C12.5904 16.1972 12.8333 14.7903 13.0728 13.3801C13.5154 13.6498 13.9612 13.9195 14.7697 13.4971C15.5816 13.0714 16.7694 11.9537 18.1136 11.1772C19.4645 10.4039 20.9818 9.96846 22.5389 10.0432C24.0994 10.1114 25.7065 10.6898 26.6215 11.4566C27.5365 12.2169 27.7561 13.1624 27.979 14.1112C28.691 14.0949 29.4031 14.0755 29.9155 14.8878C30.4279 15.6968 30.7406 17.3377 30.6242 18.7803C30.5044 20.2164 29.9487 21.4511 29.3864 22.0945C29.3365 22.153 29.2866 22.205 29.2367 22.2537L29.2334 22.2992C29.3764 22.3122 29.5062 22.3414 29.636 22.3837C29.9088 22.4876 30.155 22.6631 30.2715 22.9945C30.3846 23.3259 30.3713 23.8133 30.3247 24.3007C30.2815 24.7848 30.2116 25.2722 30.0885 25.7531C29.9687 26.2405 29.8023 26.7311 29.6526 27.0788C29.5062 27.4264 29.3731 27.6344 29.1735 27.7903C28.9805 27.9463 28.7177 28.0535 28.4016 28.1477C28.3417 28.164 28.2851 28.1802 28.2219 28.1965L28.1254 29.6781C28.0622 30.5716 27.7261 31.3222 27.0939 31.9786L26.6913 32.3977ZM15.3054 35.6534C15.6714 37.4242 16.0374 39.1983 16.2604 40.7254C16.4866 42.2493 16.5665 43.5262 16.6497 44.7967C17.019 44.0396 17.3816 43.2825 17.7942 42.7172C18.2002 42.1486 18.6493 41.7684 19.0985 41.3915C19.6675 42.2688 20.2431 43.1428 20.4028 43.6724C20.5592 44.1988 20.303 44.3808 19.9969 46.3433C19.6908 48.3025 19.3348 52.2536 18.9787 56.0032H0C0.449181 52.1756 0.898362 48.1466 1.62038 45.5472C2.34572 42.9479 3.3439 41.5734 4.91438 40.5175C6.48485 39.4615 10.4676 38.7206 11.9848 37.9636C13.5054 37.2033 14.4037 36.43 15.3054 35.6534ZM28.7908 35.6534C28.4249 37.4242 28.0589 39.1983 27.8359 40.7254C27.6097 42.2493 27.5265 43.5262 27.4466 44.7967C27.0773 44.0396 26.7146 43.2825 26.3021 42.7172C25.8961 42.1486 25.4469 41.7684 24.9978 41.3915C24.4221 42.2688 23.8532 43.1428 23.6935 43.6724C23.5371 44.1988 23.7933 44.3808 24.0994 46.3433C24.4055 48.3025 24.7615 52.2536 25.1175 56.0032H44.093C43.6438 52.1756 43.1946 48.1466 42.4726 45.5472C41.7472 42.9479 40.7457 41.5734 39.1786 40.5175C37.6081 39.4615 33.6254 38.7206 32.1081 37.9636C30.5909 37.2033 29.6925 36.43 28.7908 35.6534Z" fill="white"/>
<path fill-rule="evenodd" clip-rule="evenodd" d="M6.17529 0H64.0032V40.6443H43.9098C43.1878 39.5785 42.2728 38.646 41.065 37.837C40.709 37.5998 40.3197 37.3853 39.9071 37.1904H60.4663V3.4539H9.71218V13.3282C9.45265 14.9268 9.27631 16.4312 9.43269 18.0851C9.4826 18.6634 9.57909 19.2775 9.71218 19.9014V35.3773C8.94358 35.6405 8.00196 35.8679 7.37311 36.0564C6.98715 36.1734 6.58122 36.2936 6.17529 36.43V0Z" fill="white"/>
<path d="M56.4605 18.79H51.6094V34.2367H56.4605V18.79Z" fill="white"/>
<path d="M48.4683 23.2188H43.6172V34.24H48.4683V23.2188Z" fill="white"/>
<path d="M40.4796 26.6726H35.6284V34.24H40.4796V26.6726Z" fill="white"/>
<path d="M55.7382 11.6418H34.1343V14.5109H55.7382V11.6418Z" fill="white"/>
<path d="M42.9881 5.89722H34.1343V8.76951H42.9881V5.89722Z" fill="white"/>
</g>
<defs>
<clipPath id="clip0_151_45541">
<rect width="64" height="56" fill="white"/>
</clipPath>
</defs>
</svg>
